

<svg xmlns="http://www.w3.org/2000/svg" style="display: none;">
  <!-- User Icon -->
  <symbol id="user-icon" viewBox="0 0 40 37" fill="currentColor" xmlns="http://www.w3.org/2000/svg">
<path d="M31.6739 9.07095C31.6739 9.40624 31.6531 9.74154 31.6151 10.073C31.6324 9.93967 31.6497 9.8025 31.6635 9.66915C31.5805 10.3321 31.4215 10.976 31.19 11.5933C31.2349 11.4713 31.2833 11.3494 31.3282 11.2275C31.0967 11.8295 30.7994 12.3934 30.4365 12.9116L30.6543 12.603C30.2948 13.1135 29.8766 13.5745 29.4135 13.9708L29.6934 13.7308C29.2234 14.127 28.7118 14.4585 28.1658 14.7138C28.2764 14.6643 28.387 14.6109 28.4976 14.5614C27.9376 14.8167 27.3535 14.9919 26.7521 15.0834C26.8731 15.0643 26.9975 15.0453 27.1185 15.03C26.5137 15.1177 25.9054 15.1177 25.3005 15.03C25.4215 15.0491 25.5459 15.0681 25.6669 15.0834C25.0655 14.9919 24.4814 14.8167 23.9215 14.5614C24.0321 14.6109 24.1427 14.6643 24.2533 14.7138C23.7072 14.4585 23.1956 14.1308 22.7256 13.7308L23.0056 13.9708C22.5424 13.5745 22.1242 13.1135 21.7648 12.603L21.9825 12.9116C21.623 12.3934 21.3224 11.8295 21.0908 11.2275C21.1357 11.3494 21.1841 11.4713 21.229 11.5933C20.9975 10.976 20.8385 10.3321 20.7555 9.66915C20.7728 9.8025 20.7901 9.93967 20.8039 10.073C20.7244 9.40624 20.7244 8.73566 20.8039 8.06888C20.7866 8.20224 20.7693 8.3394 20.7555 8.47276C20.8385 7.80979 20.9975 7.16588 21.229 6.54863C21.1841 6.67056 21.1357 6.79248 21.0908 6.91441C21.3224 6.3124 21.6196 5.7485 21.9825 5.23032L21.7648 5.53894C22.1242 5.02838 22.5424 4.56735 23.0056 4.1711L22.7256 4.41114C23.1956 4.01488 23.7072 3.6834 24.2533 3.42812C24.1427 3.47765 24.0321 3.53099 23.9215 3.58052C24.4814 3.32524 25.0655 3.14998 25.6669 3.05853C25.5459 3.07758 25.4215 3.09663 25.3005 3.11187C25.9054 3.02424 26.5137 3.02424 27.1185 3.11187C26.9975 3.09282 26.8731 3.07377 26.7521 3.05853C27.3535 3.14998 27.9376 3.32524 28.4976 3.58052C28.387 3.53099 28.2764 3.47765 28.1658 3.42812C28.7118 3.6834 29.2234 4.01107 29.6934 4.41114L29.4135 4.1711C29.8766 4.56735 30.2948 5.02838 30.6543 5.53894L30.4365 5.23032C30.796 5.7485 31.0967 6.3124 31.3282 6.91441C31.2833 6.79248 31.2349 6.67056 31.19 6.54863C31.4215 7.16588 31.5805 7.80979 31.6635 8.47276C31.6462 8.3394 31.6289 8.20224 31.6151 8.06888C31.6531 8.40037 31.6704 8.73566 31.6739 9.07095C31.6773 9.86727 32.3064 10.6331 33.0564 10.595C33.8029 10.5569 34.4423 9.92443 34.4389 9.07095C34.432 7.24589 33.9343 5.37891 32.9596 3.89296C32.6969 3.49289 32.417 3.10044 32.1059 2.7461C31.7914 2.38795 31.4457 2.07932 31.0863 1.77832C30.4331 1.22966 29.7038 0.825783 28.9296 0.513351C25.8086 -0.74781 22.0447 0.376185 19.9329 3.21094C19.6426 3.59957 19.3661 4.00345 19.1311 4.43781C18.8961 4.86835 18.7129 5.32557 18.5435 5.79041C18.2255 6.65151 18.0631 7.56594 17.9974 8.49181C17.8695 10.3054 18.2981 12.1991 19.1553 13.7536C19.9813 15.2548 21.229 16.5427 22.6876 17.2704C23.1162 17.4838 23.5551 17.6819 24.0113 17.8229C24.4641 17.96 24.9238 18.0362 25.3904 18.0972C26.2406 18.2077 27.1081 18.1315 27.948 17.9448C31.1381 17.2285 33.8098 14.1994 34.3041 10.6445C34.3767 10.1264 34.432 9.60818 34.432 9.08238C34.4354 8.28606 33.7925 7.52022 33.0494 7.55832C32.3029 7.58499 31.6739 8.21748 31.6739 9.07095ZM36.2603 32.8958H18.5262C17.7417 32.8958 16.9571 32.9035 16.1725 32.8958C16.0861 32.8958 15.9997 32.8882 15.9168 32.8768C16.0377 32.8958 16.1622 32.9149 16.2831 32.9301C16.1449 32.9073 16.0135 32.8654 15.8857 32.8082C15.9963 32.8577 16.1069 32.9111 16.2175 32.9606C16.0792 32.8958 15.9513 32.812 15.8303 32.7091L16.1103 32.9492C16.0066 32.8539 15.9098 32.751 15.8269 32.6367L16.0446 32.9454C15.9513 32.812 15.8787 32.671 15.8165 32.5186C15.8615 32.6406 15.9098 32.7625 15.9548 32.8844C15.9029 32.7434 15.8684 32.5948 15.8442 32.4462C15.8615 32.5796 15.8787 32.7168 15.8926 32.8501C15.8373 32.3891 15.8753 31.9014 15.8753 31.4365V29.8058C15.8753 29.3981 15.896 28.9942 15.9444 28.5904C15.9271 28.7237 15.9098 28.8609 15.896 28.9942C15.9928 28.2132 16.1794 27.4473 16.4594 26.7196C16.4145 26.8415 16.3661 26.9634 16.3211 27.0853C16.5907 26.3919 16.9364 25.7404 17.3546 25.1422L17.1368 25.4508C17.555 24.8602 18.0354 24.3268 18.5746 23.8658L18.2947 24.1058C18.8373 23.6448 19.4283 23.2638 20.0574 22.9666C19.9468 23.0161 19.8362 23.0694 19.7256 23.119C20.3857 22.8142 21.077 22.6046 21.7889 22.4979C21.668 22.517 21.5436 22.536 21.4226 22.5513C21.9341 22.4789 22.4422 22.4751 22.9572 22.4751H29.2821C29.8524 22.4751 30.4192 22.4713 30.9895 22.5513C30.8685 22.5322 30.7441 22.5132 30.6232 22.4979C31.3317 22.6046 32.0264 22.8104 32.6865 23.119C32.5759 23.0694 32.4653 23.0161 32.3547 22.9666C32.9838 23.2638 33.5748 23.6448 34.1174 24.1058L33.8375 23.8658C34.3732 24.3268 34.8571 24.8564 35.2753 25.4508L35.0575 25.1422C35.4757 25.7404 35.8214 26.3919 36.091 27.0853C36.046 26.9634 35.9976 26.8415 35.9527 26.7196C36.2292 27.4473 36.4193 28.2093 36.5161 28.9942C36.4988 28.8609 36.4815 28.7237 36.4677 28.5904C36.5334 29.1657 36.5368 29.7372 36.5368 30.3164V32.2024C36.5368 32.4196 36.5437 32.6367 36.5195 32.8501C36.5368 32.7168 36.5541 32.5796 36.5679 32.4462C36.5472 32.5986 36.5092 32.7434 36.4573 32.8844C36.5023 32.7625 36.5506 32.6406 36.5956 32.5186C36.5368 32.671 36.4608 32.812 36.3675 32.9454L36.5852 32.6367C36.4988 32.751 36.4055 32.8577 36.3018 32.9492L36.5817 32.7091C36.4608 32.812 36.3329 32.892 36.1946 32.9606C36.3053 32.9111 36.4159 32.8577 36.5264 32.8082C36.3986 32.8654 36.2638 32.9034 36.129 32.9301C36.2499 32.9111 36.3744 32.892 36.4953 32.8768C36.4193 32.8882 36.3398 32.892 36.2603 32.8958C35.9043 32.8996 35.538 33.0635 35.2822 33.3416C35.0437 33.6045 34.8605 34.0389 34.8778 34.4199C34.9124 35.2353 35.4861 35.9554 36.2603 35.944C37.6048 35.9211 38.7868 34.9533 39.1809 33.5321C39.3364 32.9682 39.3018 32.3624 39.3018 31.7833C39.3018 30.4573 39.3398 29.1428 39.1325 27.8283C38.8283 25.9042 37.9504 24.0944 36.7477 22.6732C35.5449 21.252 33.9273 20.208 32.2165 19.7432C31.2349 19.4765 30.2464 19.4346 29.2441 19.4346H23.1127C22.0862 19.4346 21.0666 19.4879 20.0677 19.7813C18.3707 20.2766 16.7739 21.332 15.5953 22.7646C14.4064 24.2087 13.5458 26.0223 13.2658 27.9579C13.0792 29.2571 13.1172 30.5602 13.1172 31.8709C13.1172 32.4729 13.0861 33.1016 13.2831 33.6769C13.5388 34.4161 13.9467 34.999 14.5446 35.4372C15.0112 35.7763 15.6022 35.9401 16.1552 35.9478C16.4248 35.9516 16.6944 35.9478 16.964 35.9478H36.2638C36.9861 35.9478 37.6808 35.2467 37.6463 34.4237C37.6117 33.5931 37.038 32.8958 36.2603 32.8958Z"/>
  </symbol>

  <!-- Settings Icon -->
  <symbol id="x-icon" viewBox="0 0 85 85" fill="currentColor">
    <circle cx="42.5" cy="42.5" r="41" stroke="#A9CEC2" stroke-width="3"/>
    <path d="M26.0863 20.4067L38.8227 43.6752L26.0059 62.5934H28.8904L40.1115 46.0302L49.1779 62.5934H58.9941L45.5411 38.0162L57.4709 20.4067H54.5864L44.2523 35.6611L35.9025 20.4067H26.0863ZM30.3282 23.3099H34.8378L54.7515 59.6898H50.2419L30.3282 23.3099Z"/>
  </symbol>

  <symbol id="instagram-icon"  viewBox="0 0 85 85" fill="currentColor" xmlns="http://www.w3.org/2000/svg">
<circle cx="42.5" cy="42.5" r="41" stroke="#A9CEC2" stroke-width="3"/>
<path d="M54.7375 27.5124C54.1936 27.5124 53.662 27.6737 53.2097 27.9759C52.7575 28.2781 52.405 28.7075 52.1969 29.21C51.9887 29.7125 51.9343 30.2655 52.0404 30.7989C52.1465 31.3324 52.4084 31.8224 52.793 32.207C53.1776 32.5916 53.6676 32.8535 54.201 32.9596C54.7345 33.0657 55.2874 33.0112 55.7899 32.8031C56.2924 32.5949 56.7219 32.2425 57.0241 31.7902C57.3263 31.338 57.4875 30.8063 57.4875 30.2624C57.4875 29.5331 57.1978 28.8336 56.6821 28.3179C56.1664 27.8022 55.4669 27.5124 54.7375 27.5124ZM65.2792 33.0583C65.2346 31.1569 64.8785 29.2756 64.225 27.4895C63.6423 25.9613 62.7354 24.5774 61.5667 23.4333C60.4319 22.2586 59.0449 21.3574 57.5105 20.7978C55.729 20.1245 53.8457 19.7602 51.9417 19.7208C49.5125 19.5833 48.7334 19.5833 42.5 19.5833C36.2667 19.5833 35.4875 19.5833 33.0584 19.7208C31.1543 19.7602 29.271 20.1245 27.4896 20.7978C25.958 21.3631 24.5722 22.2635 23.4334 23.4333C22.2587 24.568 21.3575 25.9551 20.798 27.4895C20.1246 29.2709 19.7603 31.1542 19.7209 33.0583C19.5834 35.4874 19.5834 36.2666 19.5834 42.4999C19.5834 48.7333 19.5834 49.5124 19.7209 51.9416C19.7603 53.8456 20.1246 55.7289 20.798 57.5103C21.3575 59.0447 22.2587 60.4318 23.4334 61.5666C24.5722 62.7363 25.958 63.6368 27.4896 64.202C29.271 64.8754 31.1543 65.2396 33.0584 65.2791C35.4875 65.4166 36.2667 65.4166 42.5 65.4166C48.7334 65.4166 49.5125 65.4166 51.9417 65.2791C53.8457 65.2396 55.729 64.8754 57.5105 64.202C59.0449 63.6424 60.4319 62.7412 61.5667 61.5666C62.7406 60.4267 63.6483 59.0416 64.225 57.5103C64.8785 55.7242 65.2346 53.843 65.2792 51.9416C65.2792 49.5124 65.4167 48.7333 65.4167 42.4999C65.4167 36.2666 65.4167 35.4874 65.2792 33.0583ZM61.1542 51.6666C61.1375 53.1213 60.8741 54.5626 60.375 55.9291C60.0091 56.9264 59.4214 57.8276 58.6563 58.5645C57.913 59.3219 57.0137 59.9084 56.0209 60.2833C54.6544 60.7823 53.2131 61.0457 51.7584 61.0624C49.4667 61.177 48.6188 61.1999 42.5917 61.1999C36.5646 61.1999 35.7167 61.1999 33.425 61.0624C31.9146 61.0907 30.4106 60.8581 28.9792 60.3749C28.03 59.9809 27.1719 59.3959 26.4584 58.6562C25.6977 57.92 25.1174 57.0181 24.7625 56.0208C24.203 54.6346 23.8927 53.1606 23.8459 51.6666C23.8459 49.3749 23.7084 48.527 23.7084 42.4999C23.7084 36.4728 23.7084 35.6249 23.8459 33.3333C23.8561 31.8461 24.1276 30.3723 24.648 28.9791C25.0514 28.0118 25.6706 27.1496 26.4584 26.4583C27.1546 25.6703 28.0151 25.0445 28.9792 24.6249C30.3761 24.1209 31.8484 23.8574 33.3334 23.8458C35.625 23.8458 36.473 23.7083 42.5 23.7083C48.5271 23.7083 49.375 23.7083 51.6667 23.8458C53.1214 23.8624 54.5627 24.1259 55.9292 24.6249C56.9706 25.0114 57.9053 25.6398 58.6563 26.4583C59.4073 27.1622 59.9941 28.0228 60.375 28.9791C60.8844 30.3746 61.148 31.8477 61.1542 33.3333C61.2688 35.6249 61.2917 36.4728 61.2917 42.4999C61.2917 48.527 61.2688 49.3749 61.1542 51.6666ZM42.5 30.7437C40.1759 30.7482 37.9052 31.4415 35.9749 32.7361C34.0446 34.0306 32.5413 35.8683 31.655 38.0169C30.7687 40.1654 30.5392 42.5285 30.9954 44.8075C31.4516 47.0864 32.5731 49.1791 34.2181 50.8209C35.8632 52.4628 37.958 53.5802 40.2378 54.0319C42.5177 54.4837 44.8803 54.2495 47.0272 53.3591C49.174 52.4686 51.0087 50.9618 52.2995 49.029C53.5903 47.0961 54.2792 44.8241 54.2792 42.4999C54.2822 40.9533 53.9795 39.4213 53.3883 37.9921C52.7971 36.5629 51.9292 35.2647 50.8345 34.1721C49.7398 33.0795 48.4399 32.2142 47.0096 31.6258C45.5792 31.0374 44.0467 30.7376 42.5 30.7437ZM42.5 50.1312C40.9907 50.1312 39.5153 49.6836 38.2603 48.8451C37.0054 48.0065 36.0273 46.8147 35.4497 45.4203C34.8721 44.0258 34.721 42.4915 35.0154 41.0111C35.3099 39.5308 36.0367 38.1711 37.1039 37.1038C38.1712 36.0366 39.5309 35.3098 41.0113 35.0153C42.4916 34.7208 44.026 34.872 45.4204 35.4496C46.8148 36.0272 48.0067 37.0053 48.8452 38.2602C49.6837 39.5152 50.1313 40.9906 50.1313 42.4999C50.1313 43.5021 49.9339 44.4944 49.5504 45.4203C49.1669 46.3461 48.6048 47.1874 47.8962 47.896C47.1875 48.6047 46.3463 49.1668 45.4204 49.5503C44.4945 49.9338 43.5022 50.1312 42.5 50.1312Z"/>
</symbol>

<symbol id="facebook-icon" viewBox="0 0 85 85" fill="currentColor" xmlns="http://www.w3.org/2000/svg">
<circle cx="42.5" cy="42.5" r="41" stroke="#A9CEC2" stroke-width="3"/>
<path d="M49.65 27.1917H53.9584V19.9042C51.8724 19.6872 49.7764 19.5801 47.6792 19.5833C41.4459 19.5833 37.1834 23.3875 37.1834 30.3542V36.3583H30.1479V44.5167H37.1834V65.4167H45.6167V44.5167H52.6292L53.6834 36.3583H45.6167V31.1562C45.6167 28.75 46.2584 27.1917 49.65 27.1917Z"/>
</symbol>

<symbol id="whatsapp-icon" viewBox="0 0 85 85" fill="currentColor" xmlns="http://www.w3.org/2000/svg">
<circle cx="42.5" cy="42.5" r="41" stroke="#A9CEC2" stroke-width="3"/>
<path d="M53.0417 46.0834C52.5834 45.8542 49.6042 44.4792 49.1459 44.2501C48.6875 44.0209 48.2292 44.0209 47.7709 44.4792C47.3125 44.9376 46.3959 46.3126 45.9375 46.7709C45.7084 47.2292 45.25 47.2292 44.7917 47.0001C43.1875 46.3126 41.5834 45.3959 40.2084 44.2501C39.0625 43.1042 37.9167 41.7292 37 40.3542C36.7709 39.8959 37 39.4376 37.2292 39.2084C37.4584 38.9792 37.6875 38.5209 38.1459 38.2917C38.375 38.0626 38.6042 37.6042 38.6042 37.3751C38.8334 37.1459 38.8334 36.6876 38.6042 36.4584C38.375 36.2292 37.2292 33.4792 36.7709 32.3334C36.5417 30.7292 36.0834 30.7292 35.625 30.7292H34.4792C34.0209 30.7292 33.3334 31.1876 33.1042 31.4167C31.7292 32.7917 31.0417 34.3959 31.0417 36.2292C31.2709 38.2917 31.9584 40.3542 33.3334 42.1876C35.8542 45.8542 39.0625 48.8334 42.9584 50.6667C44.1042 51.1251 45.0209 51.5834 46.1667 51.8126C47.3125 52.2709 48.4584 52.2709 49.8334 52.0417C51.4375 51.8126 52.8125 50.6667 53.7292 49.2917C54.1875 48.3751 54.1875 47.4584 53.9584 46.5417L53.0417 46.0834ZM58.7709 25.2292C49.8334 16.2917 35.3959 16.2917 26.4584 25.2292C19.125 32.5626 17.75 43.7917 22.7917 52.7292L19.5834 64.4167L31.7292 61.2084C35.1667 63.0417 38.8334 63.9584 42.5 63.9584C55.1042 63.9584 65.1875 53.8751 65.1875 41.2709C65.4167 35.3126 62.8959 29.5834 58.7709 25.2292ZM52.5834 57.3126C49.6042 59.1459 46.1667 60.2917 42.5 60.2917C39.0625 60.2917 35.8542 59.3751 32.875 57.7709L32.1875 57.3126L25.0834 59.1459L26.9167 52.2709L26.4584 51.5834C20.9584 42.4167 23.7084 30.9584 32.6459 25.2292C41.5834 19.5001 53.0417 22.4792 58.5417 31.1876C64.0417 40.1251 61.5209 51.8126 52.5834 57.3126Z"/>
</symbol>

<symbol id="logout-icon" viewBox="0 0 30 34" fill="currentColor" xmlns="http://www.w3.org/2000/svg">
<path d="M8.75 8.36417C9.08152 8.36417 9.39946 8.2173 9.63388 7.95587C9.8683 7.69444 10 7.33986 10 6.97014C10 6.60042 9.8683 6.24584 9.63388 5.98441C9.39946 5.72298 9.08152 5.57611 8.75 5.57611H6.25C5.91848 5.57611 5.60054 5.72298 5.36612 5.98441C5.1317 6.24584 5 6.60042 5 6.97014V26.4865C5 26.8563 5.1317 27.2108 5.36612 27.4723C5.60054 27.7337 5.91848 27.8806 6.25 27.8806H8.75C9.08152 27.8806 9.39946 27.7337 9.63388 27.4723C9.8683 27.2108 10 26.8563 10 26.4865C10 26.1168 9.8683 25.7623 9.63388 25.5008C9.39946 25.2394 9.08152 25.0925 8.75 25.0925H7.5V8.36417H8.75ZM26.025 15.9198L22.5 10.3437C22.3088 10.0432 22.0187 9.83925 21.6932 9.77656C21.3676 9.71386 21.033 9.79748 20.7625 10.0091C20.6273 10.1148 20.5122 10.2492 20.4239 10.4048C20.3355 10.5603 20.2757 10.7338 20.2478 10.9152C20.2199 11.0967 20.2245 11.2825 20.2614 11.4619C20.2982 11.6414 20.3666 11.8109 20.4625 11.9608L22.6125 15.3343H12.5C12.1685 15.3343 11.8505 15.4812 11.6161 15.7426C11.3817 16.004 11.25 16.3586 11.25 16.7283C11.25 17.0981 11.3817 17.4526 11.6161 17.7141C11.8505 17.9755 12.1685 18.1224 12.5 18.1224H22.5L20.25 21.468C20.1515 21.6145 20.0798 21.7811 20.0391 21.9585C19.9984 22.1358 19.9893 22.3204 20.0126 22.5016C20.0358 22.6828 20.0908 22.8572 20.1744 23.0147C20.258 23.1722 20.3687 23.3098 20.5 23.4197C20.7164 23.6007 20.9795 23.6985 21.25 23.6985C21.4441 23.6985 21.6354 23.6481 21.809 23.5513C21.9826 23.4545 22.1336 23.314 22.25 23.1409L26 17.5648C26.1601 17.329 26.2488 17.0425 26.2533 16.7468C26.2578 16.4511 26.1778 16.1615 26.025 15.9198Z" fill="#424449"/>
</symbol>

<symbol id="dumbell-icon" viewBox="0 0 40 23" fill="currentColor" xmlns="http://www.w3.org/2000/svg">
<path fill-rule="evenodd" clip-rule="evenodd" d="M28 0H32V22.3045H28V12.2675H12V22.3045H8V0H12V10.037H28V0ZM2 10.037V3.34567H6V18.9588H2V12.2675H0V10.037H2ZM40 12.2675H38V18.9588H34V3.34567H38V10.037H40V12.2675Z"/>
</symbol>

<symbol id="food-icon" viewBox="0 0 33 28" fill="currentColor" xmlns="http://www.w3.org/2000/svg">
<path d="M16.4063 1.82965C14.3512 1.82965 12.3423 2.50927 10.6335 3.78256C8.9248 5.05585 7.59301 6.86563 6.80657 8.98303C6.02013 11.1004 5.81436 13.4304 6.21528 15.6782C6.61621 17.926 7.60582 19.9908 9.05897 21.6114C10.5121 23.232 12.3636 24.3356 14.3791 24.7827C16.3947 25.2298 18.4839 25.0004 20.3826 24.1233C22.2812 23.2463 23.904 21.761 25.0457 19.8554C26.1875 17.9498 26.7969 15.7094 26.7969 13.4175C26.7938 10.3453 25.6981 7.39981 23.7502 5.2274C21.8022 3.05499 19.1611 1.83304 16.4063 1.82965ZM16.4063 23.7856C14.5675 23.7856 12.7701 23.1775 11.2412 22.0383C9.71232 20.899 8.52072 19.2797 7.81706 17.3852C7.1134 15.4907 6.92929 13.406 7.28802 11.3948C7.64674 9.38359 8.53218 7.53617 9.83237 6.08617C11.1326 4.63617 12.7891 3.6487 14.5925 3.24865C16.3959 2.84859 18.2652 3.05391 19.964 3.83865C21.6628 4.62339 23.1148 5.95229 24.1363 7.65731C25.1579 9.36234 25.7031 11.3669 25.7031 13.4175C25.7004 16.1664 24.72 18.8017 22.9771 20.7455C21.2342 22.6892 18.8711 23.7825 16.4063 23.7856Z"/>
<path d="M6.01562 6.70877V0.609888H4.92188V6.09888H4.375V0.609888H3.28125V6.09888H2.73438V0.609888H1.64062V6.09888H1.09375V0.609888H0V9.7582C0.000413846 10.1365 0.105753 10.5054 0.301571 10.8143C0.497389 11.1232 0.774097 11.357 1.09375 11.4836V25.6153C1.09375 26.1005 1.2666 26.5659 1.57428 26.909C1.88195 27.2522 2.29925 27.4449 2.73438 27.4449H3.28125C3.71637 27.4449 4.13367 27.2522 4.44135 26.909C4.74902 26.5659 4.92188 26.1005 4.92188 25.6153V11.4836C5.24153 11.357 5.51824 11.1232 5.71405 10.8143C5.90987 10.5054 6.01521 10.1365 6.01562 9.7582V6.70877ZM4.92188 9.7582C4.92188 9.91996 4.86426 10.0751 4.7617 10.1895C4.65914 10.3038 4.52004 10.3681 4.375 10.3681C4.22996 10.3681 4.09086 10.4323 3.9883 10.5467C3.88574 10.6611 3.82812 10.8162 3.82812 10.978V25.6153C3.82812 25.777 3.77051 25.9322 3.66795 26.0465C3.56539 26.1609 3.42629 26.2252 3.28125 26.2252H2.73438C2.58933 26.2252 2.45024 26.1609 2.34768 26.0465C2.24512 25.9322 2.1875 25.777 2.1875 25.6153V10.978C2.1875 10.8162 2.12988 10.6611 2.02732 10.5467C1.92476 10.4323 1.78567 10.3681 1.64062 10.3681C1.49558 10.3681 1.35649 10.3038 1.25393 10.1895C1.15137 10.0751 1.09375 9.91996 1.09375 9.7582V7.31865H4.92188V9.7582ZM32.2656 0C30.9607 0.00161428 29.7097 0.580436 28.7869 1.60947C27.8642 2.63851 27.3452 4.03371 27.3438 5.48899V13.4175C27.3438 13.9028 27.5166 14.3682 27.8243 14.7113C28.132 15.0544 28.5493 15.2472 28.9844 15.2472V26.8351C28.9844 26.9968 29.042 27.1519 29.1446 27.2663C29.2471 27.3807 29.3862 27.4449 29.5312 27.4449H32.2656C32.4107 27.4449 32.5498 27.3807 32.6523 27.2663C32.7549 27.1519 32.8125 26.9968 32.8125 26.8351V0.609888C32.8125 0.448135 32.7549 0.293008 32.6523 0.178632C32.5498 0.064256 32.4107 0 32.2656 0ZM31.7188 26.2252H30.0781V14.6373C30.0781 14.4756 30.0205 14.3204 29.9179 14.206C29.8154 14.0917 29.6763 14.0274 29.5312 14.0274H28.9844C28.8393 14.0274 28.7002 13.9632 28.5977 13.8488C28.4951 13.7344 28.4375 13.5793 28.4375 13.4175V5.48899C28.4386 4.46269 28.7707 3.47109 29.3732 2.69525C29.9756 1.9194 30.8081 1.41107 31.7188 1.26308V26.2252Z"/>
<path d="M30.0781 3.6593H28.9844V12.8076H30.0781V3.6593Z"/>
<path d="M16.4063 7.31866C15.3246 7.31866 14.2673 7.67636 13.368 8.34651C12.4686 9.01666 11.7677 9.96918 11.3538 11.0836C10.9399 12.198 10.8316 13.4243 11.0426 14.6074C11.2536 15.7904 11.7744 16.8772 12.5393 17.7301C13.3041 18.583 14.2785 19.1639 15.3394 19.3992C16.4002 19.6346 17.4998 19.5138 18.4991 19.0522C19.4983 18.5906 20.3524 17.8089 20.9534 16.8059C21.5543 15.8029 21.875 14.6238 21.875 13.4175C21.8734 11.8006 21.2967 10.2503 20.2715 9.10695C19.2462 7.96357 17.8562 7.32044 16.4063 7.31866ZM16.4063 18.2966C15.541 18.2966 14.6951 18.0105 13.9756 17.4744C13.2562 16.9382 12.6954 16.1762 12.3643 15.2847C12.0331 14.3932 11.9465 13.4121 12.1153 12.4657C12.2841 11.5192 12.7008 10.6499 13.3127 9.9675C13.9245 9.28514 14.7041 8.82045 15.5527 8.63219C16.4014 8.44393 17.2811 8.54055 18.0805 8.90984C18.8799 9.27913 19.5632 9.90449 20.0439 10.7069C20.5247 11.5092 20.7813 12.4525 20.7813 13.4175C20.78 14.7111 20.3186 15.9513 19.4984 16.866C18.6782 17.7807 17.5662 18.2952 16.4063 18.2966Z"/>
</symbol>

<symbol id="progress-icon" viewBox="0 0 35 28" fill="currentColor" xmlns="http://www.w3.org/2000/svg">
<path fill-rule="evenodd" clip-rule="evenodd" d="M34.3 0.390336C34.4839 0.544112 34.6387 0.736767 34.7558 0.957301C34.8729 1.17783 34.9499 1.42193 34.9824 1.67565C35.0149 1.92936 35.0023 2.18773 34.9452 2.43601C34.8882 2.68428 34.7879 2.9176 34.65 3.12263L24.15 18.7358C23.8816 19.135 23.4862 19.4044 23.0452 19.4886C22.6042 19.5728 22.151 19.4654 21.7787 19.1885L12.656 12.4066L3.15 26.5423C3.01211 26.7474 2.83936 26.9201 2.64161 27.0507C2.44387 27.1813 2.22499 27.2671 1.99749 27.3034C1.76998 27.3396 1.53831 27.3255 1.31568 27.2619C1.09306 27.1983 0.883851 27.0864 0.7 26.9326C0.51615 26.7789 0.361258 26.5862 0.24417 26.3657C0.127081 26.1452 0.050089 25.9011 0.0175885 25.6473C-0.014912 25.3936 -0.00228432 25.1353 0.054751 24.887C0.111786 24.6387 0.212112 24.4054 0.35 24.2004L10.85 8.58723C11.1184 8.18799 11.5138 7.91858 11.9548 7.83437C12.3958 7.75016 12.849 7.85754 13.2213 8.13445L22.344 14.9164L31.85 0.780665C32.1285 0.366579 32.543 0.0928237 33.0025 0.0196229C33.462 -0.0535778 33.9287 0.0797718 34.3 0.390336Z"/>
</symbol>
</svg>

