

<svg xmlns="http://www.w3.org/2000/svg" style="display: none;">
  <!-- User Icon -->

<symbol id="user-icon" viewBox="0 0 23 23" fill="currentColor" xmlns="http://www.w3.org/2000/svg">
<path d="M11.25 11.25C14.344 11.25 16.875 8.71869 16.875 5.625C16.875 2.53131 14.344 0 11.25 0C8.15596 0 5.625 2.53131 5.625 5.625C5.625 8.71869 8.15596 11.25 11.25 11.25ZM11.25 14.0625C7.52355 14.0625 0 15.9611 0 19.6875V22.5H22.5V19.6875C22.5 15.9611 14.9764 14.0625 11.25 14.0625Z"/>
</symbol>


  <!-- Settings Icon -->
  <symbol id="x-icon" viewBox="0 0 85 85" fill="currentColor">
    <circle cx="42.5" cy="42.5" r="41" stroke="#FFFFFF" stroke-width="3"/>
    <path d="M26.0863 20.4067L38.8227 43.6752L26.0059 62.5934H28.8904L40.1115 46.0302L49.1779 62.5934H58.9941L45.5411 38.0162L57.4709 20.4067H54.5864L44.2523 35.6611L35.9025 20.4067H26.0863ZM30.3282 23.3099H34.8378L54.7515 59.6898H50.2419L30.3282 23.3099Z" fill="#FFFFFF"/>
  </symbol>

  <symbol id="instagram-icon"  viewBox="0 0 85 85" fill="currentColor" xmlns="http://www.w3.org/2000/svg">
<circle cx="42.5" cy="42.5" r="41" stroke="#FFFFFF" stroke-width="3"/>
<path d="M54.7375 27.5124C54.1936 27.5124 53.662 27.6737 53.2097 27.9759C52.7575 28.2781 52.405 28.7075 52.1969 29.21C51.9887 29.7125 51.9343 30.2655 52.0404 30.7989C52.1465 31.3324 52.4084 31.8224 52.793 32.207C53.1776 32.5916 53.6676 32.8535 54.201 32.9596C54.7345 33.0657 55.2874 33.0112 55.7899 32.8031C56.2924 32.5949 56.7219 32.2425 57.0241 31.7902C57.3263 31.338 57.4875 30.8063 57.4875 30.2624C57.4875 29.5331 57.1978 28.8336 56.6821 28.3179C56.1664 27.8022 55.4669 27.5124 54.7375 27.5124ZM65.2792 33.0583C65.2346 31.1569 64.8785 29.2756 64.225 27.4895C63.6423 25.9613 62.7354 24.5774 61.5667 23.4333C60.4319 22.2586 59.0449 21.3574 57.5105 20.7978C55.729 20.1245 53.8457 19.7602 51.9417 19.7208C49.5125 19.5833 48.7334 19.5833 42.5 19.5833C36.2667 19.5833 35.4875 19.5833 33.0584 19.7208C31.1543 19.7602 29.271 20.1245 27.4896 20.7978C25.958 21.3631 24.5722 22.2635 23.4334 23.4333C22.2587 24.568 21.3575 25.9551 20.798 27.4895C20.1246 29.2709 19.7603 31.1542 19.7209 33.0583C19.5834 35.4874 19.5834 36.2666 19.5834 42.4999C19.5834 48.7333 19.5834 49.5124 19.7209 51.9416C19.7603 53.8456 20.1246 55.7289 20.798 57.5103C21.3575 59.0447 22.2587 60.4318 23.4334 61.5666C24.5722 62.7363 25.958 63.6368 27.4896 64.202C29.271 64.8754 31.1543 65.2396 33.0584 65.2791C35.4875 65.4166 36.2667 65.4166 42.5 65.4166C48.7334 65.4166 49.5125 65.4166 51.9417 65.2791C53.8457 65.2396 55.729 64.8754 57.5105 64.202C59.0449 63.6424 60.4319 62.7412 61.5667 61.5666C62.7406 60.4267 63.6483 59.0416 64.225 57.5103C64.8785 55.7242 65.2346 53.843 65.2792 51.9416C65.2792 49.5124 65.4167 48.7333 65.4167 42.4999C65.4167 36.2666 65.4167 35.4874 65.2792 33.0583ZM61.1542 51.6666C61.1375 53.1213 60.8741 54.5626 60.375 55.9291C60.0091 56.9264 59.4214 57.8276 58.6563 58.5645C57.913 59.3219 57.0137 59.9084 56.0209 60.2833C54.6544 60.7823 53.2131 61.0457 51.7584 61.0624C49.4667 61.177 48.6188 61.1999 42.5917 61.1999C36.5646 61.1999 35.7167 61.1999 33.425 61.0624C31.9146 61.0907 30.4106 60.8581 28.9792 60.3749C28.03 59.9809 27.1719 59.3959 26.4584 58.6562C25.6977 57.92 25.1174 57.0181 24.7625 56.0208C24.203 54.6346 23.8927 53.1606 23.8459 51.6666C23.8459 49.3749 23.7084 48.527 23.7084 42.4999C23.7084 36.4728 23.7084 35.6249 23.8459 33.3333C23.8561 31.8461 24.1276 30.3723 24.648 28.9791C25.0514 28.0118 25.6706 27.1496 26.4584 26.4583C27.1546 25.6703 28.0151 25.0445 28.9792 24.6249C30.3761 24.1209 31.8484 23.8574 33.3334 23.8458C35.625 23.8458 36.473 23.7083 42.5 23.7083C48.5271 23.7083 49.375 23.7083 51.6667 23.8458C53.1214 23.8624 54.5627 24.1259 55.9292 24.6249C56.9706 25.0114 57.9053 25.6398 58.6563 26.4583C59.4073 27.1622 59.9941 28.0228 60.375 28.9791C60.8844 30.3746 61.148 31.8477 61.1542 33.3333C61.2688 35.6249 61.2917 36.4728 61.2917 42.4999C61.2917 48.527 61.2688 49.3749 61.1542 51.6666ZM42.5 30.7437C40.1759 30.7482 37.9052 31.4415 35.9749 32.7361C34.0446 34.0306 32.5413 35.8683 31.655 38.0169C30.7687 40.1654 30.5392 42.5285 30.9954 44.8075C31.4516 47.0864 32.5731 49.1791 34.2181 50.8209C35.8632 52.4628 37.958 53.5802 40.2378 54.0319C42.5177 54.4837 44.8803 54.2495 47.0272 53.3591C49.174 52.4686 51.0087 50.9618 52.2995 49.029C53.5903 47.0961 54.2792 44.8241 54.2792 42.4999C54.2822 40.9533 53.9795 39.4213 53.3883 37.9921C52.7971 36.5629 51.9292 35.2647 50.8345 34.1721C49.7398 33.0795 48.4399 32.2142 47.0096 31.6258C45.5792 31.0374 44.0467 30.7376 42.5 30.7437ZM42.5 50.1312C40.9907 50.1312 39.5153 49.6836 38.2603 48.8451C37.0054 48.0065 36.0273 46.8147 35.4497 45.4203C34.8721 44.0258 34.721 42.4915 35.0154 41.0111C35.3099 39.5308 36.0367 38.1711 37.1039 37.1038C38.1712 36.0366 39.5309 35.3098 41.0113 35.0153C42.4916 34.7208 44.026 34.872 45.4204 35.4496C46.8148 36.0272 48.0067 37.0053 48.8452 38.2602C49.6837 39.5152 50.1313 40.9906 50.1313 42.4999C50.1313 43.5021 49.9339 44.4944 49.5504 45.4203C49.1669 46.3461 48.6048 47.1874 47.8962 47.896C47.1875 48.6047 46.3463 49.1668 45.4204 49.5503C44.4945 49.9338 43.5022 50.1312 42.5 50.1312Z" fill="#FFFFFF"/>
</symbol>


<symbol id="facebook-icon" viewBox="0 0 85 85" fill="currentColor" xmlns="http://www.w3.org/2000/svg">
<circle cx="42.5" cy="42.5" r="41" stroke="#FFFFFF" stroke-width="3"/>
<path d="M49.65 27.1917H53.9584V19.9042C51.8724 19.6872 49.7764 19.5801 47.6792 19.5833C41.4459 19.5833 37.1834 23.3875 37.1834 30.3542V36.3583H30.1479V44.5167H37.1834V65.4167H45.6167V44.5167H52.6292L53.6834 36.3583H45.6167V31.1562C45.6167 28.75 46.2584 27.1917 49.65 27.1917Z" fill="#FFFFFF"/>
</symbol>

<symbol id="whatsapp-icon" viewBox="0 0 85 85" fill="currentColor" xmlns="http://www.w3.org/2000/svg">
<circle cx="42.5" cy="42.5" r="41" stroke="#FFFFFF" stroke-width="3"/>
<path d="M53.0417 46.0834C52.5834 45.8542 49.6042 44.4792 49.1459 44.2501C48.6875 44.0209 48.2292 44.0209 47.7709 44.4792C47.3125 44.9376 46.3959 46.3126 45.9375 46.7709C45.7084 47.2292 45.25 47.2292 44.7917 47.0001C43.1875 46.3126 41.5834 45.3959 40.2084 44.2501C39.0625 43.1042 37.9167 41.7292 37 40.3542C36.7709 39.8959 37 39.4376 37.2292 39.2084C37.4584 38.9792 37.6875 38.5209 38.1459 38.2917C38.375 38.0626 38.6042 37.6042 38.6042 37.3751C38.8334 37.1459 38.8334 36.6876 38.6042 36.4584C38.375 36.2292 37.2292 33.4792 36.7709 32.3334C36.5417 30.7292 36.0834 30.7292 35.625 30.7292H34.4792C34.0209 30.7292 33.3334 31.1876 33.1042 31.4167C31.7292 32.7917 31.0417 34.3959 31.0417 36.2292C31.2709 38.2917 31.9584 40.3542 33.3334 42.1876C35.8542 45.8542 39.0625 48.8334 42.9584 50.6667C44.1042 51.1251 45.0209 51.5834 46.1667 51.8126C47.3125 52.2709 48.4584 52.2709 49.8334 52.0417C51.4375 51.8126 52.8125 50.6667 53.7292 49.2917C54.1875 48.3751 54.1875 47.4584 53.9584 46.5417L53.0417 46.0834ZM58.7709 25.2292C49.8334 16.2917 35.3959 16.2917 26.4584 25.2292C19.125 32.5626 17.75 43.7917 22.7917 52.7292L19.5834 64.4167L31.7292 61.2084C35.1667 63.0417 38.8334 63.9584 42.5 63.9584C55.1042 63.9584 65.1875 53.8751 65.1875 41.2709C65.4167 35.3126 62.8959 29.5834 58.7709 25.2292ZM52.5834 57.3126C49.6042 59.1459 46.1667 60.2917 42.5 60.2917C39.0625 60.2917 35.8542 59.3751 32.875 57.7709L32.1875 57.3126L25.0834 59.1459L26.9167 52.2709L26.4584 51.5834C20.9584 42.4167 23.7084 30.9584 32.6459 25.2292C41.5834 19.5001 53.0417 22.4792 58.5417 31.1876C64.0417 40.1251 61.5209 51.8126 52.5834 57.3126Z" fill="#FFFFFF"/>
</symbol>

<symbol id="logout-icon" viewBox="0 0 30 34" fill="currentColor" xmlns="http://www.w3.org/2000/svg">
<path d="M8.75 8.36417C9.08152 8.36417 9.39946 8.2173 9.63388 7.95587C9.8683 7.69444 10 7.33986 10 6.97014C10 6.60042 9.8683 6.24584 9.63388 5.98441C9.39946 5.72298 9.08152 5.57611 8.75 5.57611H6.25C5.91848 5.57611 5.60054 5.72298 5.36612 5.98441C5.1317 6.24584 5 6.60042 5 6.97014V26.4865C5 26.8563 5.1317 27.2108 5.36612 27.4723C5.60054 27.7337 5.91848 27.8806 6.25 27.8806H8.75C9.08152 27.8806 9.39946 27.7337 9.63388 27.4723C9.8683 27.2108 10 26.8563 10 26.4865C10 26.1168 9.8683 25.7623 9.63388 25.5008C9.39946 25.2394 9.08152 25.0925 8.75 25.0925H7.5V8.36417H8.75ZM26.025 15.9198L22.5 10.3437C22.3088 10.0432 22.0187 9.83925 21.6932 9.77656C21.3676 9.71386 21.033 9.79748 20.7625 10.0091C20.6273 10.1148 20.5122 10.2492 20.4239 10.4048C20.3355 10.5603 20.2757 10.7338 20.2478 10.9152C20.2199 11.0967 20.2245 11.2825 20.2614 11.4619C20.2982 11.6414 20.3666 11.8109 20.4625 11.9608L22.6125 15.3343H12.5C12.1685 15.3343 11.8505 15.4812 11.6161 15.7426C11.3817 16.004 11.25 16.3586 11.25 16.7283C11.25 17.0981 11.3817 17.4526 11.6161 17.7141C11.8505 17.9755 12.1685 18.1224 12.5 18.1224H22.5L20.25 21.468C20.1515 21.6145 20.0798 21.7811 20.0391 21.9585C19.9984 22.1358 19.9893 22.3204 20.0126 22.5016C20.0358 22.6828 20.0908 22.8572 20.1744 23.0147C20.258 23.1722 20.3687 23.3098 20.5 23.4197C20.7164 23.6007 20.9795 23.6985 21.25 23.6985C21.4441 23.6985 21.6354 23.6481 21.809 23.5513C21.9826 23.4545 22.1336 23.314 22.25 23.1409L26 17.5648C26.1601 17.329 26.2488 17.0425 26.2533 16.7468C26.2578 16.4511 26.1778 16.1615 26.025 15.9198Z" fill="#424449"/>
</symbol>

<symbol id="dumbell-icon" viewBox="0 0 40 23" fill="currentColor" xmlns="http://www.w3.org/2000/svg">
<path fill-rule="evenodd" clip-rule="evenodd" d="M28 0H32V22.3045H28V12.2675H12V22.3045H8V0H12V10.037H28V0ZM2 10.037V3.34567H6V18.9588H2V12.2675H0V10.037H2ZM40 12.2675H38V18.9588H34V3.34567H38V10.037H40V12.2675Z"/>
</symbol>

<symbol id="food-icon" viewBox="0 0 33 28" fill="currentColor" xmlns="http://www.w3.org/2000/svg">
<path d="M16.4063 1.82965C14.3512 1.82965 12.3423 2.50927 10.6335 3.78256C8.9248 5.05585 7.59301 6.86563 6.80657 8.98303C6.02013 11.1004 5.81436 13.4304 6.21528 15.6782C6.61621 17.926 7.60582 19.9908 9.05897 21.6114C10.5121 23.232 12.3636 24.3356 14.3791 24.7827C16.3947 25.2298 18.4839 25.0004 20.3826 24.1233C22.2812 23.2463 23.904 21.761 25.0457 19.8554C26.1875 17.9498 26.7969 15.7094 26.7969 13.4175C26.7938 10.3453 25.6981 7.39981 23.7502 5.2274C21.8022 3.05499 19.1611 1.83304 16.4063 1.82965ZM16.4063 23.7856C14.5675 23.7856 12.7701 23.1775 11.2412 22.0383C9.71232 20.899 8.52072 19.2797 7.81706 17.3852C7.1134 15.4907 6.92929 13.406 7.28802 11.3948C7.64674 9.38359 8.53218 7.53617 9.83237 6.08617C11.1326 4.63617 12.7891 3.6487 14.5925 3.24865C16.3959 2.84859 18.2652 3.05391 19.964 3.83865C21.6628 4.62339 23.1148 5.95229 24.1363 7.65731C25.1579 9.36234 25.7031 11.3669 25.7031 13.4175C25.7004 16.1664 24.72 18.8017 22.9771 20.7455C21.2342 22.6892 18.8711 23.7825 16.4063 23.7856Z"/>
<path d="M6.01562 6.70877V0.609888H4.92188V6.09888H4.375V0.609888H3.28125V6.09888H2.73438V0.609888H1.64062V6.09888H1.09375V0.609888H0V9.7582C0.000413846 10.1365 0.105753 10.5054 0.301571 10.8143C0.497389 11.1232 0.774097 11.357 1.09375 11.4836V25.6153C1.09375 26.1005 1.2666 26.5659 1.57428 26.909C1.88195 27.2522 2.29925 27.4449 2.73438 27.4449H3.28125C3.71637 27.4449 4.13367 27.2522 4.44135 26.909C4.74902 26.5659 4.92188 26.1005 4.92188 25.6153V11.4836C5.24153 11.357 5.51824 11.1232 5.71405 10.8143C5.90987 10.5054 6.01521 10.1365 6.01562 9.7582V6.70877ZM4.92188 9.7582C4.92188 9.91996 4.86426 10.0751 4.7617 10.1895C4.65914 10.3038 4.52004 10.3681 4.375 10.3681C4.22996 10.3681 4.09086 10.4323 3.9883 10.5467C3.88574 10.6611 3.82812 10.8162 3.82812 10.978V25.6153C3.82812 25.777 3.77051 25.9322 3.66795 26.0465C3.56539 26.1609 3.42629 26.2252 3.28125 26.2252H2.73438C2.58933 26.2252 2.45024 26.1609 2.34768 26.0465C2.24512 25.9322 2.1875 25.777 2.1875 25.6153V10.978C2.1875 10.8162 2.12988 10.6611 2.02732 10.5467C1.92476 10.4323 1.78567 10.3681 1.64062 10.3681C1.49558 10.3681 1.35649 10.3038 1.25393 10.1895C1.15137 10.0751 1.09375 9.91996 1.09375 9.7582V7.31865H4.92188V9.7582ZM32.2656 0C30.9607 0.00161428 29.7097 0.580436 28.7869 1.60947C27.8642 2.63851 27.3452 4.03371 27.3438 5.48899V13.4175C27.3438 13.9028 27.5166 14.3682 27.8243 14.7113C28.132 15.0544 28.5493 15.2472 28.9844 15.2472V26.8351C28.9844 26.9968 29.042 27.1519 29.1446 27.2663C29.2471 27.3807 29.3862 27.4449 29.5312 27.4449H32.2656C32.4107 27.4449 32.5498 27.3807 32.6523 27.2663C32.7549 27.1519 32.8125 26.9968 32.8125 26.8351V0.609888C32.8125 0.448135 32.7549 0.293008 32.6523 0.178632C32.5498 0.064256 32.4107 0 32.2656 0ZM31.7188 26.2252H30.0781V14.6373C30.0781 14.4756 30.0205 14.3204 29.9179 14.206C29.8154 14.0917 29.6763 14.0274 29.5312 14.0274H28.9844C28.8393 14.0274 28.7002 13.9632 28.5977 13.8488C28.4951 13.7344 28.4375 13.5793 28.4375 13.4175V5.48899C28.4386 4.46269 28.7707 3.47109 29.3732 2.69525C29.9756 1.9194 30.8081 1.41107 31.7188 1.26308V26.2252Z"/>
<path d="M30.0781 3.6593H28.9844V12.8076H30.0781V3.6593Z"/>
<path d="M16.4063 7.31866C15.3246 7.31866 14.2673 7.67636 13.368 8.34651C12.4686 9.01666 11.7677 9.96918 11.3538 11.0836C10.9399 12.198 10.8316 13.4243 11.0426 14.6074C11.2536 15.7904 11.7744 16.8772 12.5393 17.7301C13.3041 18.583 14.2785 19.1639 15.3394 19.3992C16.4002 19.6346 17.4998 19.5138 18.4991 19.0522C19.4983 18.5906 20.3524 17.8089 20.9534 16.8059C21.5543 15.8029 21.875 14.6238 21.875 13.4175C21.8734 11.8006 21.2967 10.2503 20.2715 9.10695C19.2462 7.96357 17.8562 7.32044 16.4063 7.31866ZM16.4063 18.2966C15.541 18.2966 14.6951 18.0105 13.9756 17.4744C13.2562 16.9382 12.6954 16.1762 12.3643 15.2847C12.0331 14.3932 11.9465 13.4121 12.1153 12.4657C12.2841 11.5192 12.7008 10.6499 13.3127 9.9675C13.9245 9.28514 14.7041 8.82045 15.5527 8.63219C16.4014 8.44393 17.2811 8.54055 18.0805 8.90984C18.8799 9.27913 19.5632 9.90449 20.0439 10.7069C20.5247 11.5092 20.7813 12.4525 20.7813 13.4175C20.78 14.7111 20.3186 15.9513 19.4984 16.866C18.6782 17.7807 17.5662 18.2952 16.4063 18.2966Z"/>
</symbol>

<symbol id="progress-icon" viewBox="0 0 35 28" fill="currentColor" xmlns="http://www.w3.org/2000/svg">
<path fill-rule="evenodd" clip-rule="evenodd" d="M34.3 0.390336C34.4839 0.544112 34.6387 0.736767 34.7558 0.957301C34.8729 1.17783 34.9499 1.42193 34.9824 1.67565C35.0149 1.92936 35.0023 2.18773 34.9452 2.43601C34.8882 2.68428 34.7879 2.9176 34.65 3.12263L24.15 18.7358C23.8816 19.135 23.4862 19.4044 23.0452 19.4886C22.6042 19.5728 22.151 19.4654 21.7787 19.1885L12.656 12.4066L3.15 26.5423C3.01211 26.7474 2.83936 26.9201 2.64161 27.0507C2.44387 27.1813 2.22499 27.2671 1.99749 27.3034C1.76998 27.3396 1.53831 27.3255 1.31568 27.2619C1.09306 27.1983 0.883851 27.0864 0.7 26.9326C0.51615 26.7789 0.361258 26.5862 0.24417 26.3657C0.127081 26.1452 0.050089 25.9011 0.0175885 25.6473C-0.014912 25.3936 -0.00228432 25.1353 0.054751 24.887C0.111786 24.6387 0.212112 24.4054 0.35 24.2004L10.85 8.58723C11.1184 8.18799 11.5138 7.91858 11.9548 7.83437C12.3958 7.75016 12.849 7.85754 13.2213 8.13445L22.344 14.9164L31.85 0.780665C32.1285 0.366579 32.543 0.0928237 33.0025 0.0196229C33.462 -0.0535778 33.9287 0.0797718 34.3 0.390336Z"/>
</symbol>

<symbol id="google-play-icon" viewBox="0 0 258 78" fill="none" xmlns="http://www.w3.org/2000/svg"> <rect width="258" height="78" rx="16" fill="black"/> <path d="M79.128 56.32C77.9333 56.32 76.8773 56.2667 75.96 56.16C75.0427 56.0533 74.136 55.872 73.24 55.616C72.28 55.36 71.4907 55.0187 70.872 54.592C70.2533 54.144 69.752 53.568 69.368 52.864C68.984 52.1173 68.792 51.264 68.792 50.304V41.664C68.792 40.6187 69.0053 39.68 69.432 38.848C69.8587 37.9947 70.4347 37.3227 71.16 36.832C71.8427 36.384 72.6533 36 73.592 35.68C74.552 35.36 75.4907 35.1467 76.408 35.04C77.176 34.9547 78.104 34.912 79.192 34.912C82.136 34.912 84.952 35.136 87.64 35.584V39.36C85.1653 38.7627 82.3493 38.464 79.192 38.464C75.5867 38.464 73.784 39.5093 73.784 41.6V49.952C73.784 50.976 74.264 51.7013 75.224 52.128C76.2053 52.5547 77.6773 52.768 79.64 52.768C80.6853 52.768 81.8053 52.608 83 52.288V47.456H79.608V44.192H87.768V54.976C86.7013 55.36 85.336 55.68 83.672 55.936C82.0293 56.192 80.5147 56.32 79.128 56.32ZM99.0345 56.32C98.0745 56.32 97.2852 56.288 96.6665 56.224C96.0478 56.16 95.3865 56.032 94.6825 55.84C93.9145 55.6267 93.2958 55.328 92.8265 54.944C92.3572 54.5387 91.9625 53.9733 91.6425 53.248C91.3225 52.544 91.1625 51.6907 91.1625 50.688V46.112C91.1625 45.088 91.3225 44.192 91.6425 43.424C91.9625 42.656 92.3785 42.0587 92.8905 41.632C93.3385 41.2693 93.9252 40.9707 94.6505 40.736C95.3972 40.48 96.1225 40.32 96.8265 40.256C97.6372 40.2133 98.3732 40.192 99.0345 40.192C100.016 40.192 100.795 40.224 101.371 40.288C101.968 40.3307 102.619 40.4587 103.323 40.672C104.091 40.9067 104.709 41.2267 105.179 41.632C105.669 42.0373 106.085 42.6133 106.427 43.36C106.747 44.128 106.907 45.0453 106.907 46.112V50.688C106.907 51.648 106.747 52.4907 106.427 53.216C106.128 53.9413 105.733 54.5067 105.243 54.912C104.816 55.2747 104.229 55.5733 103.483 55.808C102.757 56.0213 102.043 56.16 101.339 56.224C100.699 56.288 99.9305 56.32 99.0345 56.32ZM99.0345 53.408C99.9092 53.408 100.571 53.344 101.019 53.216C101.467 53.0667 101.776 52.8427 101.947 52.544C102.139 52.2453 102.235 51.808 102.235 51.232V45.376C102.235 44.5227 102.011 43.9253 101.563 43.584C101.115 43.2427 100.272 43.072 99.0345 43.072C97.7972 43.072 96.9545 43.2427 96.5065 43.584C96.0585 43.9253 95.8345 44.5227 95.8345 45.376V51.232C95.8345 51.808 95.9198 52.2453 96.0905 52.544C96.2825 52.8427 96.6025 53.0667 97.0505 53.216C97.4985 53.344 98.1598 53.408 99.0345 53.408ZM117.972 56.32C117.012 56.32 116.223 56.288 115.604 56.224C114.985 56.16 114.324 56.032 113.62 55.84C112.852 55.6267 112.233 55.328 111.764 54.944C111.295 54.5387 110.9 53.9733 110.58 53.248C110.26 52.544 110.1 51.6907 110.1 50.688V46.112C110.1 45.088 110.26 44.192 110.58 43.424C110.9 42.656 111.316 42.0587 111.828 41.632C112.276 41.2693 112.863 40.9707 113.588 40.736C114.335 40.48 115.06 40.32 115.764 40.256C116.575 40.2133 117.311 40.192 117.972 40.192C118.953 40.192 119.732 40.224 120.308 40.288C120.905 40.3307 121.556 40.4587 122.26 40.672C123.028 40.9067 123.647 41.2267 124.116 41.632C124.607 42.0373 125.023 42.6133 125.364 43.36C125.684 44.128 125.844 45.0453 125.844 46.112V50.688C125.844 51.648 125.684 52.4907 125.364 53.216C125.065 53.9413 124.671 54.5067 124.18 54.912C123.753 55.2747 123.167 55.5733 122.42 55.808C121.695 56.0213 120.98 56.16 120.276 56.224C119.636 56.288 118.868 56.32 117.972 56.32ZM117.972 53.408C118.847 53.408 119.508 53.344 119.956 53.216C120.404 53.0667 120.713 52.8427 120.884 52.544C121.076 52.2453 121.172 51.808 121.172 51.232V45.376C121.172 44.5227 120.948 43.9253 120.5 43.584C120.052 43.2427 119.209 43.072 117.972 43.072C116.735 43.072 115.892 43.2427 115.444 43.584C114.996 43.9253 114.772 44.5227 114.772 45.376V51.232C114.772 51.808 114.857 52.2453 115.028 52.544C115.22 52.8427 115.54 53.0667 115.988 53.216C116.436 53.344 117.097 53.408 117.972 53.408ZM135.758 63.04C133.24 63.04 131.374 62.9653 130.158 62.816V59.68C132.163 59.9573 134.03 60.096 135.758 60.096C137.336 60.096 138.467 59.84 139.15 59.328C139.832 58.816 140.174 57.9627 140.174 56.768V54.272C139.79 54.8267 139.416 55.2533 139.054 55.552C138.691 55.8293 138.211 56.0213 137.614 56.128C137.038 56.256 136.238 56.32 135.214 56.32C133.699 56.32 132.494 56.1813 131.598 55.904C130.702 55.6053 130.051 55.1253 129.646 54.464C129.24 53.7813 129.038 52.8427 129.038 51.648V45.6C129.038 44.1707 129.219 43.072 129.582 42.304C129.966 41.536 130.606 40.992 131.502 40.672C132.419 40.352 133.731 40.192 135.438 40.192C136.547 40.192 137.4 40.256 137.998 40.384C138.574 40.512 139.011 40.704 139.31 40.96C139.608 41.216 139.95 41.6533 140.334 42.272V40.512H144.846V56.832C144.846 59.0293 144.088 60.608 142.574 61.568C141.08 62.5493 138.808 63.04 135.758 63.04ZM136.878 53.408C137.795 53.408 138.478 53.344 138.926 53.216C139.395 53.088 139.715 52.8853 139.886 52.608C140.078 52.3093 140.174 51.8933 140.174 51.36V45.12C140.174 44.544 140.088 44.1173 139.918 43.84C139.747 43.5413 139.416 43.3387 138.926 43.232C138.435 43.1253 137.667 43.072 136.622 43.072C135.768 43.072 135.139 43.136 134.734 43.264C134.328 43.392 134.051 43.616 133.902 43.936C133.774 44.2347 133.71 44.6827 133.71 45.28V51.2C133.71 51.8613 133.774 52.3413 133.902 52.64C134.051 52.9173 134.339 53.12 134.766 53.248C135.192 53.3547 135.896 53.408 136.878 53.408ZM149.082 33.6H153.754V56H149.082V33.6ZM165.762 56.32C160.279 56.32 157.538 54.6453 157.538 51.296V45.728C157.538 43.7867 158.156 42.3787 159.394 41.504C160.652 40.6293 162.583 40.192 165.186 40.192C167.639 40.192 169.431 40.6187 170.562 41.472C171.714 42.304 172.29 43.7227 172.29 45.728V49.504H162.242V50.912C162.242 51.808 162.562 52.448 163.202 52.832C163.842 53.216 164.994 53.408 166.658 53.408C168.194 53.408 169.922 53.184 171.842 52.736V55.712C169.943 56.1173 167.916 56.32 165.762 56.32ZM167.842 46.848V44.608C167.842 44.096 167.628 43.712 167.202 43.456C166.796 43.2 166.103 43.072 165.122 43.072C163.991 43.072 163.234 43.2 162.85 43.456C162.444 43.7333 162.242 44.1173 162.242 44.608V46.848H167.842ZM183.428 35.232H191.748C193.774 35.232 195.374 35.3707 196.548 35.648C197.742 35.9253 198.606 36.416 199.14 37.12C199.694 37.8027 199.972 38.7627 199.972 40V43.936C199.972 45.3013 199.673 46.368 199.076 47.136C198.5 47.904 197.572 48.448 196.292 48.768C195.033 49.088 193.326 49.248 191.172 49.248H188.42V56H183.428V35.232ZM191.588 45.824C192.889 45.824 193.806 45.6747 194.34 45.376C194.873 45.056 195.14 44.5227 195.14 43.776V40.448C195.14 39.7653 194.884 39.3173 194.372 39.104C193.881 38.8907 192.932 38.784 191.524 38.784H188.42V45.824H191.588ZM203.426 33.6H208.098V56H203.426V33.6ZM216.713 56.32C215.263 56.32 214.175 56.192 213.449 55.936C212.745 55.6587 212.244 55.1787 211.945 54.496C211.668 53.792 211.529 52.7467 211.529 51.36C211.529 50.1227 211.679 49.152 211.977 48.448C212.297 47.744 212.799 47.2427 213.481 46.944C214.185 46.624 215.145 46.464 216.361 46.464H221.609V45.408C221.609 44.7467 221.513 44.256 221.321 43.936C221.151 43.616 220.82 43.392 220.329 43.264C219.86 43.136 219.145 43.072 218.185 43.072C216.863 43.072 215.049 43.2 212.745 43.456V40.512C214.431 40.2987 216.404 40.192 218.665 40.192C220.649 40.192 222.175 40.3413 223.241 40.64C224.329 40.9387 225.108 41.4507 225.577 42.176C226.047 42.9013 226.281 43.9573 226.281 45.344V56H221.705V54.592C221.343 55.2107 220.852 55.648 220.233 55.904C219.615 56.1813 218.441 56.32 216.713 56.32ZM218.537 53.408C219.476 53.408 220.148 53.376 220.553 53.312C220.852 53.2693 221.055 53.2053 221.161 53.12C221.289 53.0347 221.396 52.896 221.481 52.704C221.567 52.5547 221.609 52.3307 221.609 52.032V49.024H218.409C217.684 49.024 217.172 49.0773 216.873 49.184C216.575 49.2693 216.372 49.4613 216.265 49.76C216.159 50.0373 216.105 50.5387 216.105 51.264C216.105 51.968 216.159 52.4587 216.265 52.736C216.372 53.0133 216.575 53.1947 216.873 53.28C217.193 53.3653 217.748 53.408 218.537 53.408ZM234.776 55.872L228.6 40.512H233.688L237.176 51.456L240.344 40.512H245.176L236.696 62.656H231.96L234.776 55.872Z" fill="white"/> <path d="M75.9432 12.0795C75.8485 11.7727 75.7178 11.4981 75.5511 11.2557C75.3883 11.0095 75.1913 10.7992 74.9602 10.625C74.733 10.4508 74.4716 10.3201 74.1761 10.233C73.8807 10.142 73.5587 10.0966 73.2102 10.0966C72.5852 10.0966 72.0284 10.2538 71.5398 10.5682C71.0511 10.8826 70.6667 11.3447 70.3864 11.9545C70.1098 12.5606 69.9716 13.2992 69.9716 14.1705C69.9716 15.0492 70.1098 15.7936 70.3864 16.4034C70.6629 17.0133 71.0473 17.4773 71.5398 17.7955C72.0322 18.1098 72.6042 18.267 73.2557 18.267C73.8466 18.267 74.358 18.1534 74.7898 17.9261C75.2254 17.6989 75.5606 17.3769 75.7955 16.9602C76.0303 16.5398 76.1477 16.0473 76.1477 15.483L76.625 15.5568H73.4659V13.9091H78.1875V15.3068C78.1875 16.303 77.9754 17.1648 77.5511 17.892C77.1269 18.6193 76.5436 19.1799 75.8011 19.5739C75.0587 19.964 74.2064 20.1591 73.2443 20.1591C72.1723 20.1591 71.2311 19.9186 70.4205 19.4375C69.6136 18.9527 68.983 18.2652 68.5284 17.375C68.0777 16.4811 67.8523 15.4205 67.8523 14.1932C67.8523 13.2538 67.9848 12.4148 68.25 11.6761C68.5189 10.9375 68.8939 10.3106 69.375 9.79545C69.8561 9.27651 70.4205 8.88258 71.0682 8.61364C71.7159 8.34091 72.4205 8.20455 73.1818 8.20455C73.8258 8.20455 74.4261 8.29924 74.983 8.48864C75.5398 8.67424 76.0341 8.93939 76.4659 9.28409C76.9015 9.62879 77.2595 10.0379 77.5398 10.5114C77.8201 10.9848 78.0038 11.5076 78.0909 12.0795H75.9432ZM80.2259 20V8.36364H87.794V10.1307H82.3338V13.2898H87.402V15.0568H82.3338V18.233H87.8395V20H80.2259ZM89.4332 10.1307V8.36364H98.7173V10.1307H95.1207V20H93.0298V10.1307H89.4332ZM106.584 8.36364V20H104.476V8.36364H106.584ZM108.355 10.1307V8.36364H117.639V10.1307H114.043V20H111.952V10.1307H108.355ZM133.795 14.1818C133.795 15.4356 133.561 16.5095 133.091 17.4034C132.625 18.2936 131.989 18.9754 131.182 19.4489C130.379 19.9223 129.468 20.1591 128.449 20.1591C127.43 20.1591 126.517 19.9223 125.71 19.4489C124.907 18.9716 124.271 18.2879 123.801 17.3977C123.335 16.5038 123.102 15.4318 123.102 14.1818C123.102 12.928 123.335 11.8561 123.801 10.9659C124.271 10.072 124.907 9.38826 125.71 8.91477C126.517 8.44129 127.43 8.20455 128.449 8.20455C129.468 8.20455 130.379 8.44129 131.182 8.91477C131.989 9.38826 132.625 10.072 133.091 10.9659C133.561 11.8561 133.795 12.928 133.795 14.1818ZM131.676 14.1818C131.676 13.2992 131.538 12.5549 131.261 11.9489C130.989 11.339 130.61 10.8788 130.125 10.5682C129.64 10.2538 129.081 10.0966 128.449 10.0966C127.816 10.0966 127.258 10.2538 126.773 10.5682C126.288 10.8788 125.907 11.339 125.631 11.9489C125.358 12.5549 125.222 13.2992 125.222 14.1818C125.222 15.0644 125.358 15.8106 125.631 16.4205C125.907 17.0265 126.288 17.4867 126.773 17.8011C127.258 18.1117 127.816 18.267 128.449 18.267C129.081 18.267 129.64 18.1117 130.125 17.8011C130.61 17.4867 130.989 17.0265 131.261 16.4205C131.538 15.8106 131.676 15.0644 131.676 14.1818ZM145.351 8.36364V20H143.476L137.993 12.0739H137.896V20H135.788V8.36364H137.675L143.152 16.2955H143.254V8.36364H145.351Z" fill="white"/> <mask id="mask0_256_14" style="mask-type:alpha" maskUnits="userSpaceOnUse" x="18" y="19" width="36" height="39"> <path d="M52.5726 36.1006C54.4758 37.1479 54.4758 39.8521 52.5726 40.8994L22.1344 57.6488C20.2808 58.6688 18 57.3451 18 55.2494V21.7506C18 19.6549 20.2808 18.3312 22.1344 19.3512L52.5726 36.1006Z" fill="#C4C4C4"/> </mask> <g mask="url(#mask0_256_14)"> <path d="M18.9521 57.3199L37.9384 38.2268L19.2648 19.4482C18.5198 19.9258 18 20.7503 18 21.7508V55.2496C18 56.1032 18.3783 56.8286 18.9521 57.3199Z" fill="url(#paint0_linear_256_14)"/> <path d="M52.572 36.0998C54.4753 37.1471 54.4753 39.8511 52.572 40.8984L44.893 45.1241L37.938 38.2256L44.5384 31.679L52.572 36.0998Z" fill="url(#paint1_linear_256_14)"/> <path d="M44.8934 45.1242L37.9382 38.2258L18.9518 57.3189C19.7867 58.0338 21.0355 58.2526 22.1342 57.648L44.8934 45.1242Z" fill="url(#paint2_linear_256_14)"/> <path d="M19.2638 19.448L37.9375 38.2265L44.5379 31.6799L22.1334 19.3512C21.1647 18.8182 20.0793 18.9252 19.2638 19.448Z" fill="url(#paint3_linear_256_14)"/> </g> <defs> <linearGradient id="paint0_linear_256_14" x1="31.0153" y1="30.811" x2="18.1066" y2="43.8259" gradientUnits="userSpaceOnUse"> <stop stop-color="#00C3FF"/> <stop offset="1" stop-color="#1BE2FA"/> </linearGradient> <linearGradient id="paint1_linear_256_14" x1="37.938" y1="38.2257" x2="55.1071" y2="38.2257" gradientUnits="userSpaceOnUse"> <stop stop-color="#FFCE00"/> <stop offset="1" stop-color="#FFEA00"/> </linearGradient> <linearGradient id="paint2_linear_256_14" x1="18.5536" y1="59.6496" x2="41.3921" y2="41.3395" gradientUnits="userSpaceOnUse"> <stop stop-color="#DE2453"/> <stop offset="1" stop-color="#FE3944"/> </linearGradient> <linearGradient id="paint3_linear_256_14" x1="19.6605" y1="17.3521" x2="41.3953" y2="35.1048" gradientUnits="userSpaceOnUse"> <stop stop-color="#11D574"/> <stop offset="1" stop-color="#01F176"/> </linearGradient> </defs> </symbol>


<symbol id="app-store-icon" viewBox="0 0 258 78" fill="none" xmlns="http://www.w3.org/2000/svg"> <rect width="258" height="78" rx="16" fill="black"/> <path d="M77.752 37.448H78.104L89.432 61H85.304L83.288 56.392H72.504L70.488 61H66.488L77.752 37.448ZM77.912 44.264L76.504 47.464L73.944 53.16H81.88L79.352 47.496L77.976 44.264H77.912ZM91.1798 68.776V46.312H94.5078V49.032C94.9984 48.1573 95.6811 47.4213 96.5558 46.824C97.4518 46.2267 98.6038 45.928 100.012 45.928C101.334 45.928 102.518 46.2053 103.564 46.76C104.609 47.3147 105.43 48.1573 106.028 49.288C106.646 50.4187 106.956 51.848 106.956 53.576C106.956 55.1547 106.636 56.5307 105.996 57.704C105.356 58.856 104.502 59.752 103.436 60.392C102.369 61.0107 101.174 61.32 99.8518 61.32C98.5931 61.32 97.5158 61.096 96.6198 60.648C95.7238 60.2 95.0198 59.5813 94.5078 58.792V68.776H91.1798ZM99.0518 58.408C100.502 58.408 101.58 57.9493 102.284 57.032C103.009 56.1147 103.372 54.9947 103.372 53.672C103.372 52.2853 103.009 51.144 102.284 50.248C101.58 49.352 100.502 48.904 99.0518 48.904C98.2838 48.904 97.5691 49.0853 96.9078 49.448C96.2464 49.8107 95.7131 50.3333 95.3078 51.016C94.9024 51.6987 94.6998 52.52 94.6998 53.48V53.704C94.6998 54.6427 94.9024 55.4747 95.3078 56.2C95.7131 56.904 96.2464 57.448 96.9078 57.832C97.5691 58.216 98.2838 58.408 99.0518 58.408ZM110.43 68.776V46.312H113.758V49.032C114.248 48.1573 114.931 47.4213 115.806 46.824C116.702 46.2267 117.854 45.928 119.262 45.928C120.584 45.928 121.768 46.2053 122.814 46.76C123.859 47.3147 124.68 48.1573 125.278 49.288C125.896 50.4187 126.206 51.848 126.206 53.576C126.206 55.1547 125.886 56.5307 125.246 57.704C124.606 58.856 123.752 59.752 122.686 60.392C121.619 61.0107 120.424 61.32 119.102 61.32C117.843 61.32 116.766 61.096 115.87 60.648C114.974 60.2 114.27 59.5813 113.758 58.792V68.776H110.43ZM118.302 58.408C119.752 58.408 120.83 57.9493 121.534 57.032C122.259 56.1147 122.622 54.9947 122.622 53.672C122.622 52.2853 122.259 51.144 121.534 50.248C120.83 49.352 119.752 48.904 118.302 48.904C117.534 48.904 116.819 49.0853 116.158 49.448C115.496 49.8107 114.963 50.3333 114.558 51.016C114.152 51.6987 113.95 52.52 113.95 53.48V53.704C113.95 54.6427 114.152 55.4747 114.558 56.2C114.963 56.904 115.496 57.448 116.158 57.832C116.819 58.216 117.534 58.408 118.302 58.408ZM143.373 61.32C142.477 61.32 141.591 61.2133 140.717 61C139.842 60.7653 139.063 60.488 138.381 60.168C137.698 59.8267 137.186 59.4853 136.845 59.144L138.541 56.104C138.775 56.296 139.138 56.552 139.629 56.872C140.141 57.1707 140.727 57.4373 141.389 57.672C142.05 57.9067 142.711 58.024 143.373 58.024C144.461 58.024 145.367 57.768 146.093 57.256C146.839 56.744 147.213 55.9973 147.213 55.016C147.213 54.2053 146.999 53.5333 146.573 53C146.146 52.4667 145.581 51.9973 144.877 51.592C144.194 51.1867 143.447 50.8027 142.637 50.44C141.847 50.056 141.09 49.6293 140.365 49.16C139.533 48.6053 138.807 47.8693 138.189 46.952C137.57 46.0347 137.261 44.8507 137.261 43.4C137.261 41.9707 137.581 40.7973 138.221 39.88C138.882 38.9627 139.746 38.28 140.813 37.832C141.901 37.3627 143.085 37.128 144.365 37.128C145.389 37.128 146.263 37.2347 146.989 37.448C147.714 37.6613 148.322 37.9173 148.813 38.216C149.303 38.5147 149.687 38.7813 149.965 39.016L148.269 41.928C147.906 41.544 147.362 41.192 146.637 40.872C145.911 40.5307 145.101 40.36 144.205 40.36C143.159 40.36 142.327 40.6053 141.709 41.096C141.09 41.5653 140.781 42.2693 140.781 43.208C140.781 44.04 141.058 44.7547 141.613 45.352C142.167 45.928 142.871 46.4613 143.725 46.952C144.599 47.4213 145.495 47.9013 146.413 48.392C147.33 48.8827 148.141 49.4587 148.845 50.12C149.421 50.632 149.911 51.272 150.317 52.04C150.722 52.808 150.925 53.672 150.925 54.632C150.925 56.0827 150.583 57.3093 149.901 58.312C149.239 59.3147 148.343 60.072 147.213 60.584C146.082 61.0747 144.802 61.32 143.373 61.32ZM155.146 61V49.128H152.554V46.312H155.146V40.328L158.634 39.56V46.312H162.026V49.128H158.634V61H155.146ZM171.308 61.32C169.772 61.32 168.417 60.9787 167.244 60.296C166.092 59.6133 165.196 58.6853 164.556 57.512C163.916 56.3387 163.596 55.0373 163.596 53.608C163.596 52.2 163.905 50.92 164.524 49.768C165.164 48.5947 166.06 47.6667 167.212 46.984C168.364 46.28 169.729 45.928 171.308 45.928C172.886 45.928 174.252 46.28 175.404 46.984C176.556 47.6667 177.441 48.5947 178.06 49.768C178.678 50.92 178.988 52.2 178.988 53.608C178.988 55.0373 178.668 56.3387 178.028 57.512C177.409 58.6853 176.524 59.6133 175.372 60.296C174.22 60.9787 172.865 61.32 171.308 61.32ZM171.404 58.504C172.684 58.504 173.665 58.0347 174.348 57.096C175.052 56.1573 175.404 55.016 175.404 53.672C175.404 52.7547 175.233 51.9333 174.892 51.208C174.55 50.4613 174.06 49.864 173.42 49.416C172.801 48.968 172.065 48.744 171.212 48.744C170.38 48.744 169.665 48.968 169.068 49.416C168.47 49.864 168.001 50.4613 167.66 51.208C167.34 51.9333 167.18 52.7547 167.18 53.672C167.18 54.568 167.361 55.3893 167.724 56.136C168.086 56.8613 168.577 57.4373 169.196 57.864C169.836 58.2907 170.572 58.504 171.404 58.504ZM182.332 61V46.312H185.788V49.192C186.13 48.232 186.674 47.4533 187.42 46.856C188.188 46.2373 189.074 45.928 190.076 45.928C190.759 45.928 191.228 45.992 191.484 46.12L191.004 49.608C190.812 49.48 190.396 49.416 189.756 49.416C189.223 49.416 188.647 49.5333 188.028 49.768C187.41 50.0027 186.876 50.4187 186.428 51.016C186.002 51.592 185.788 52.4027 185.788 53.448V61H182.332ZM200.279 61.32C198.444 61.32 196.951 60.968 195.799 60.264C194.647 59.5387 193.804 58.5893 193.271 57.416C192.737 56.2427 192.471 54.9947 192.471 53.672C192.471 52.072 192.791 50.696 193.431 49.544C194.092 48.392 194.999 47.5067 196.151 46.888C197.303 46.248 198.604 45.928 200.055 45.928C202.38 45.928 204.076 46.5787 205.143 47.88C206.209 49.16 206.743 50.888 206.743 53.064C206.743 53.64 206.711 54.2373 206.647 54.856H196.087C196.321 56.1787 196.791 57.128 197.495 57.704C198.22 58.2587 199.18 58.536 200.375 58.536C201.527 58.536 202.433 58.4293 203.095 58.216C203.756 58.0027 204.3 57.7893 204.727 57.576L205.783 60.04C205.356 60.3173 204.695 60.6053 203.799 60.904C202.903 61.1813 201.729 61.32 200.279 61.32ZM196.087 52.456H203.383C203.404 51.0693 203.095 50.12 202.455 49.608C201.815 49.096 200.983 48.84 199.959 48.84C198.892 48.84 198.017 49.128 197.335 49.704C196.673 50.2587 196.257 51.176 196.087 52.456Z" fill="white"/> <path d="M72.0909 20H68.1477V8.36364H72.1705C73.3258 8.36364 74.3182 8.59659 75.1477 9.0625C75.9811 9.52462 76.6212 10.1894 77.0682 11.0568C77.5152 11.9242 77.7386 12.9621 77.7386 14.1705C77.7386 15.3826 77.5133 16.4242 77.0625 17.2955C76.6155 18.1667 75.9697 18.8352 75.125 19.3011C74.2841 19.767 73.2727 20 72.0909 20ZM70.2557 18.1761H71.9886C72.7992 18.1761 73.4754 18.0284 74.017 17.733C74.5587 17.4337 74.9659 16.9886 75.2386 16.3977C75.5114 15.803 75.6477 15.0606 75.6477 14.1705C75.6477 13.2803 75.5114 12.5417 75.2386 11.9545C74.9659 11.3636 74.5625 10.9223 74.0284 10.6307C73.4981 10.3352 72.839 10.1875 72.0511 10.1875H70.2557V18.1761ZM86.0174 20.1705C85.1651 20.1705 84.4265 19.983 83.8015 19.608C83.1765 19.233 82.6916 18.7083 82.3469 18.0341C82.006 17.3598 81.8356 16.572 81.8356 15.6705C81.8356 14.7689 82.006 13.9792 82.3469 13.3011C82.6916 12.6231 83.1765 12.0966 83.8015 11.7216C84.4265 11.3466 85.1651 11.1591 86.0174 11.1591C86.8697 11.1591 87.6083 11.3466 88.2333 11.7216C88.8583 12.0966 89.3412 12.6231 89.6822 13.3011C90.0269 13.9792 90.1992 14.7689 90.1992 15.6705C90.1992 16.572 90.0269 17.3598 89.6822 18.0341C89.3412 18.7083 88.8583 19.233 88.2333 19.608C87.6083 19.983 86.8697 20.1705 86.0174 20.1705ZM86.0287 18.5227C86.4909 18.5227 86.8772 18.3958 87.1878 18.142C87.4984 17.8845 87.7295 17.5398 87.881 17.108C88.0363 16.6761 88.114 16.1951 88.114 15.6648C88.114 15.1307 88.0363 14.6477 87.881 14.2159C87.7295 13.7803 87.4984 13.4337 87.1878 13.1761C86.8772 12.9186 86.4909 12.7898 86.0287 12.7898C85.5553 12.7898 85.1613 12.9186 84.8469 13.1761C84.5363 13.4337 84.3034 13.7803 84.1481 14.2159C83.9966 14.6477 83.9208 15.1307 83.9208 15.6648C83.9208 16.1951 83.9966 16.6761 84.1481 17.108C84.3034 17.5398 84.5363 17.8845 84.8469 18.142C85.1613 18.3958 85.5553 18.5227 86.0287 18.5227ZM96.0561 20L93.5902 11.2727H95.6868L97.2209 17.4091H97.3004L98.8686 11.2727H100.942L102.511 17.375H102.596L104.107 11.2727H106.209L103.738 20H101.596L99.9595 14.1023H99.8402L98.2038 20H96.0561ZM112.262 14.8864V20H110.206V11.2727H112.171V12.7557H112.274C112.475 12.267 112.795 11.8788 113.234 11.5909C113.677 11.303 114.225 11.1591 114.876 11.1591C115.478 11.1591 116.003 11.2879 116.45 11.5455C116.901 11.803 117.249 12.1761 117.495 12.6648C117.745 13.1534 117.868 13.7462 117.865 14.4432V20H115.808V14.7614C115.808 14.178 115.656 13.7216 115.353 13.392C115.054 13.0625 114.639 12.8977 114.109 12.8977C113.749 12.8977 113.429 12.9773 113.149 13.1364C112.872 13.2917 112.654 13.517 112.495 13.8125C112.34 14.108 112.262 14.4659 112.262 14.8864ZM124.572 8.36364V20H122.516V8.36364H124.572ZM133.054 20.1705C132.202 20.1705 131.463 19.983 130.838 19.608C130.213 19.233 129.729 18.7083 129.384 18.0341C129.043 17.3598 128.872 16.572 128.872 15.6705C128.872 14.7689 129.043 13.9792 129.384 13.3011C129.729 12.6231 130.213 12.0966 130.838 11.7216C131.463 11.3466 132.202 11.1591 133.054 11.1591C133.907 11.1591 134.645 11.3466 135.27 11.7216C135.895 12.0966 136.378 12.6231 136.719 13.3011C137.064 13.9792 137.236 14.7689 137.236 15.6705C137.236 16.572 137.064 17.3598 136.719 18.0341C136.378 18.7083 135.895 19.233 135.27 19.608C134.645 19.983 133.907 20.1705 133.054 20.1705ZM133.066 18.5227C133.528 18.5227 133.914 18.3958 134.225 18.142C134.535 17.8845 134.766 17.5398 134.918 17.108C135.073 16.6761 135.151 16.1951 135.151 15.6648C135.151 15.1307 135.073 14.6477 134.918 14.2159C134.766 13.7803 134.535 13.4337 134.225 13.1761C133.914 12.9186 133.528 12.7898 133.066 12.7898C132.592 12.7898 132.198 12.9186 131.884 13.1761C131.573 13.4337 131.34 13.7803 131.185 14.2159C131.033 14.6477 130.958 15.1307 130.958 15.6648C130.958 16.1951 131.033 16.6761 131.185 17.108C131.34 17.5398 131.573 17.8845 131.884 18.142C132.198 18.3958 132.592 18.5227 133.066 18.5227ZM144.053 20.1761C143.5 20.1761 143.002 20.0777 142.559 19.8807C142.119 19.6799 141.771 19.3845 141.513 18.9943C141.26 18.6042 141.133 18.1231 141.133 17.5511C141.133 17.0587 141.224 16.6515 141.405 16.3295C141.587 16.0076 141.835 15.75 142.15 15.5568C142.464 15.3636 142.818 15.2178 143.212 15.1193C143.61 15.017 144.021 14.9432 144.445 14.8977C144.957 14.8447 145.371 14.7973 145.69 14.7557C146.008 14.7102 146.239 14.642 146.383 14.5511C146.53 14.4564 146.604 14.3106 146.604 14.1136V14.0795C146.604 13.6515 146.477 13.3201 146.224 13.0852C145.97 12.8504 145.604 12.733 145.127 12.733C144.623 12.733 144.224 12.8428 143.928 13.0625C143.637 13.2822 143.44 13.5417 143.337 13.8409L141.417 13.5682C141.568 13.0379 141.818 12.5947 142.167 12.2386C142.515 11.8788 142.941 11.6098 143.445 11.4318C143.949 11.25 144.506 11.1591 145.116 11.1591C145.536 11.1591 145.955 11.2083 146.371 11.3068C146.788 11.4053 147.169 11.5682 147.513 11.7955C147.858 12.0189 148.135 12.3239 148.343 12.7102C148.555 13.0966 148.661 13.5795 148.661 14.1591V20H146.684V18.8011H146.616C146.491 19.0436 146.315 19.2708 146.087 19.483C145.864 19.6913 145.582 19.8598 145.241 19.9886C144.904 20.1136 144.508 20.1761 144.053 20.1761ZM144.587 18.6648C145 18.6648 145.358 18.5833 145.661 18.4205C145.964 18.2538 146.197 18.0341 146.36 17.7614C146.527 17.4886 146.61 17.1913 146.61 16.8693V15.8409C146.546 15.8939 146.436 15.9432 146.28 15.9886C146.129 16.0341 145.958 16.0739 145.769 16.108C145.58 16.142 145.392 16.1723 145.207 16.1989C145.021 16.2254 144.86 16.2481 144.724 16.267C144.417 16.3087 144.142 16.3769 143.9 16.4716C143.657 16.5663 143.466 16.6989 143.326 16.8693C143.186 17.036 143.116 17.2519 143.116 17.517C143.116 17.8958 143.254 18.1818 143.53 18.375C143.807 18.5682 144.159 18.6648 144.587 18.6648ZM156.528 20.1534C155.842 20.1534 155.229 19.9773 154.687 19.625C154.145 19.2727 153.717 18.7614 153.403 18.0909C153.089 17.4205 152.931 16.6061 152.931 15.6477C152.931 14.678 153.09 13.8598 153.409 13.1932C153.731 12.5227 154.164 12.017 154.71 11.6761C155.255 11.3314 155.863 11.1591 156.534 11.1591C157.045 11.1591 157.465 11.2462 157.795 11.4205C158.125 11.5909 158.386 11.7973 158.579 12.0398C158.772 12.2784 158.922 12.5038 159.028 12.7159H159.113V8.36364H161.176V20H159.153V18.625H159.028C158.922 18.8371 158.768 19.0625 158.568 19.3011C158.367 19.536 158.102 19.7367 157.772 19.9034C157.443 20.0701 157.028 20.1534 156.528 20.1534ZM157.102 18.4659C157.537 18.4659 157.909 18.3485 158.215 18.1136C158.522 17.875 158.755 17.5436 158.914 17.1193C159.073 16.6951 159.153 16.2008 159.153 15.6364C159.153 15.072 159.073 14.5814 158.914 14.1648C158.759 13.7481 158.528 13.4242 158.221 13.1932C157.918 12.9621 157.545 12.8466 157.102 12.8466C156.643 12.8466 156.261 12.9659 155.954 13.2045C155.647 13.4432 155.416 13.7727 155.261 14.1932C155.106 14.6136 155.028 15.0947 155.028 15.6364C155.028 16.1818 155.106 16.6686 155.261 17.0966C155.42 17.5208 155.653 17.8561 155.96 18.1023C156.27 18.3447 156.651 18.4659 157.102 18.4659ZM176.263 20.1705C175.411 20.1705 174.672 19.983 174.047 19.608C173.422 19.233 172.937 18.7083 172.593 18.0341C172.252 17.3598 172.081 16.572 172.081 15.6705C172.081 14.7689 172.252 13.9792 172.593 13.3011C172.937 12.6231 173.422 12.0966 174.047 11.7216C174.672 11.3466 175.411 11.1591 176.263 11.1591C177.115 11.1591 177.854 11.3466 178.479 11.7216C179.104 12.0966 179.587 12.6231 179.928 13.3011C180.272 13.9792 180.445 14.7689 180.445 15.6705C180.445 16.572 180.272 17.3598 179.928 18.0341C179.587 18.7083 179.104 19.233 178.479 19.608C177.854 19.983 177.115 20.1705 176.263 20.1705ZM176.274 18.5227C176.736 18.5227 177.123 18.3958 177.433 18.142C177.744 17.8845 177.975 17.5398 178.127 17.108C178.282 16.6761 178.36 16.1951 178.36 15.6648C178.36 15.1307 178.282 14.6477 178.127 14.2159C177.975 13.7803 177.744 13.4337 177.433 13.1761C177.123 12.9186 176.736 12.7898 176.274 12.7898C175.801 12.7898 175.407 12.9186 175.093 13.1761C174.782 13.4337 174.549 13.7803 174.394 14.2159C174.242 14.6477 174.166 15.1307 174.166 15.6648C174.166 16.1951 174.242 16.6761 174.394 17.108C174.549 17.5398 174.782 17.8845 175.093 18.142C175.407 18.3958 175.801 18.5227 176.274 18.5227ZM186.807 14.8864V20H184.751V11.2727H186.716V12.7557H186.819C187.02 12.267 187.34 11.8788 187.779 11.5909C188.222 11.303 188.77 11.1591 189.421 11.1591C190.023 11.1591 190.548 11.2879 190.995 11.5455C191.446 11.803 191.794 12.1761 192.04 12.6648C192.29 13.1534 192.413 13.7462 192.41 14.4432V20H190.353V14.7614C190.353 14.178 190.201 13.7216 189.898 13.392C189.599 13.0625 189.184 12.8977 188.654 12.8977C188.294 12.8977 187.974 12.9773 187.694 13.1364C187.417 13.2917 187.199 13.517 187.04 13.8125C186.885 14.108 186.807 14.4659 186.807 14.8864ZM207.947 11.2727V12.8636H202.93V11.2727H207.947ZM204.169 9.18182H206.226V17.375C206.226 17.6515 206.267 17.8636 206.351 18.0114C206.438 18.1553 206.551 18.2538 206.692 18.3068C206.832 18.3598 206.987 18.3864 207.158 18.3864C207.286 18.3864 207.404 18.3769 207.51 18.358C207.62 18.339 207.703 18.322 207.76 18.3068L208.106 19.9148C207.997 19.9527 207.839 19.9943 207.635 20.0398C207.434 20.0852 207.188 20.1117 206.896 20.1193C206.381 20.1345 205.917 20.0568 205.504 19.8864C205.091 19.7121 204.764 19.4432 204.521 19.0795C204.283 18.7159 204.165 18.2614 204.169 17.7159V9.18182ZM214.472 14.8864V20H212.415V8.36364H214.426V12.7557H214.529C214.733 12.2633 215.049 11.875 215.477 11.5909C215.909 11.303 216.459 11.1591 217.125 11.1591C217.731 11.1591 218.26 11.286 218.71 11.5398C219.161 11.7936 219.51 12.1648 219.756 12.6534C220.006 13.142 220.131 13.7386 220.131 14.4432V20H218.074V14.7614C218.074 14.1742 217.923 13.7178 217.619 13.392C217.32 13.0625 216.9 12.8977 216.358 12.8977C215.994 12.8977 215.669 12.9773 215.381 13.1364C215.097 13.2917 214.873 13.517 214.71 13.8125C214.551 14.108 214.472 14.4659 214.472 14.8864ZM228.651 20.1705C227.776 20.1705 227.02 19.9886 226.384 19.625C225.751 19.2576 225.265 18.7386 224.924 18.0682C224.583 17.3939 224.412 16.6004 224.412 15.6875C224.412 14.7898 224.583 14.0019 224.924 13.3239C225.269 12.642 225.75 12.1117 226.367 11.733C226.984 11.3504 227.71 11.1591 228.543 11.1591C229.081 11.1591 229.589 11.2462 230.066 11.4205C230.547 11.5909 230.971 11.8561 231.339 12.2159C231.71 12.5758 232.001 13.0341 232.214 13.5909C232.426 14.1439 232.532 14.803 232.532 15.5682V16.1989H225.378V14.8125H230.56C230.556 14.4186 230.471 14.0682 230.304 13.7614C230.138 13.4508 229.905 13.2064 229.606 13.0284C229.31 12.8504 228.965 12.7614 228.572 12.7614C228.151 12.7614 227.782 12.8636 227.464 13.0682C227.145 13.2689 226.897 13.5341 226.719 13.8636C226.545 14.1894 226.456 14.5473 226.452 14.9375V16.1477C226.452 16.6553 226.545 17.0909 226.731 17.4545C226.916 17.8144 227.176 18.0909 227.509 18.2841C227.842 18.4735 228.233 18.5682 228.679 18.5682C228.979 18.5682 229.25 18.5265 229.492 18.4432C229.734 18.3561 229.945 18.2292 230.123 18.0625C230.301 17.8958 230.435 17.6894 230.526 17.4432L232.447 17.6591C232.325 18.1667 232.094 18.6098 231.753 18.9886C231.416 19.3636 230.984 19.6553 230.458 19.8636C229.931 20.0682 229.329 20.1705 228.651 20.1705Z" fill="white"/> <path d="M50.9918 57.75C48.9168 60.85 46.7168 64 43.3668 64C40.0168 64 38.9418 62.025 35.1418 62.025C31.3418 62.025 30.1418 63.95 26.9668 64.075C23.7918 64.2 21.2168 60.7 19.2168 57.675C14.9418 51.5 11.7168 40.175 16.0668 32.475C17.084 30.6404 18.5571 29.099 20.3438 27.9999C22.1306 26.9007 24.1705 26.2808 26.2668 26.2C29.4668 26.2 32.5168 28.375 34.4918 28.375C36.4668 28.375 40.1418 25.7 44.0168 26.1C45.8177 26.1692 47.5778 26.6571 49.1574 27.525C50.737 28.3929 52.0926 29.6169 53.1168 31.1C51.4942 32.1099 50.1517 33.5114 49.2124 35.1758C48.2732 36.8402 47.7675 38.7141 47.7418 40.625C47.7692 42.7619 48.4171 44.8447 49.6066 46.6201C50.7961 48.3954 52.476 49.7868 54.4418 50.625C53.6354 53.1359 52.4736 55.5184 50.9918 57.7M36.7168 17.75C38.611 15.6241 41.2338 14.286 44.0668 14C44.3206 16.8843 43.4217 19.7518 41.5668 21.975C40.6862 23.1174 39.5473 24.0347 38.2436 24.6518C36.9399 25.2689 35.5085 25.5681 34.0668 25.525C33.9732 24.1182 34.1591 22.7069 34.614 21.3724C35.0688 20.0379 35.7835 18.8068 36.7168 17.75Z" fill="white"/>
</symbol>

<symbol id="login-user-icon" viewBox="0 0 23 23" fill="currentColor" xmlns="http://www.w3.org/2000/svg">
<path d="M11.25 11.25C14.344 11.25 16.875 8.71869 16.875 5.625C16.875 2.53131 14.344 0 11.25 0C8.15596 0 5.625 2.53131 5.625 5.625C5.625 8.71869 8.15596 11.25 11.25 11.25ZM11.25 14.0625C7.52355 14.0625 0 15.9611 0 19.6875V22.5H22.5V19.6875C22.5 15.9611 14.9764 14.0625 11.25 14.0625Z"/>
</symbol>

<symbol id="login-password-icon" viewBox="0 0 28 24" fill="currentColor" xmlns="http://www.w3.org/2000/svg">
<path d="M22.5 23.75H5C3.67392 23.75 2.40215 23.2232 1.46447 22.2855C0.526784 21.3479 0 20.0761 0 18.75V13.75C0 12.4239 0.526784 11.1521 1.46447 10.2145C2.40215 9.27678 3.67392 8.75 5 8.75H22.5C23.8261 8.75 25.0979 9.27678 26.0355 10.2145C26.9732 11.1521 27.5 12.4239 27.5 13.75V18.75C27.5 20.0761 26.9732 21.3479 26.0355 22.2855C25.0979 23.2232 23.8261 23.75 22.5 23.75ZM5 11.25C4.33696 11.25 3.70107 11.5134 3.23223 11.9822C2.76339 12.4511 2.5 13.087 2.5 13.75V18.75C2.5 19.413 2.76339 20.0489 3.23223 20.5178C3.70107 20.9866 4.33696 21.25 5 21.25H22.5C23.163 21.25 23.7989 20.9866 24.2678 20.5178C24.7366 20.0489 25 19.413 25 18.75V13.75C25 13.087 24.7366 12.4511 24.2678 11.9822C23.7989 11.5134 23.163 11.25 22.5 11.25H5Z"/>
<path d="M22.5 11.25H5V8.75C5 6.42936 5.92187 4.20376 7.56282 2.56282C9.20376 0.921872 11.4294 0 13.75 0C16.0706 0 18.2962 0.921872 19.9372 2.56282C21.5781 4.20376 22.5 6.42936 22.5 8.75V11.25ZM7.5 8.75H20C20 7.0924 19.3415 5.50269 18.1694 4.33058C16.9973 3.15848 15.4076 2.5 13.75 2.5C12.0924 2.5 10.5027 3.15848 9.33058 4.33058C8.15848 5.50269 7.5 7.0924 7.5 8.75Z"/>
<path d="M22.5 10H5C4.00544 10 3.05161 10.3951 2.34835 11.0983C1.64509 11.8016 1.25 12.7554 1.25 13.75V18.75C1.25 19.7446 1.64509 20.6984 2.34835 21.4017C3.05161 22.1049 4.00544 22.5 5 22.5H22.5C23.4946 22.5 24.4484 22.1049 25.1517 21.4017C25.8549 20.6984 26.25 19.7446 26.25 18.75V13.75C26.25 12.7554 25.8549 11.8016 25.1517 11.0983C24.4484 10.3951 23.4946 10 22.5 10ZM6.25 17.5C6.00277 17.5 5.7611 17.4267 5.55554 17.2893C5.34998 17.152 5.18976 16.9568 5.09515 16.7284C5.00054 16.4999 4.97579 16.2486 5.02402 16.0061C5.07225 15.7637 5.1913 15.5409 5.36612 15.3661C5.54093 15.1913 5.76366 15.0722 6.00614 15.024C6.24861 14.9758 6.49995 15.0005 6.72835 15.0952C6.95676 15.1898 7.15199 15.35 7.28934 15.5555C7.42669 15.7611 7.5 16.0028 7.5 16.25C7.5 16.5815 7.3683 16.8995 7.13388 17.1339C6.89946 17.3683 6.58152 17.5 6.25 17.5ZM11.25 17.5C11.0028 17.5 10.7611 17.4267 10.5555 17.2893C10.35 17.152 10.1898 16.9568 10.0951 16.7284C10.0005 16.4999 9.97579 16.2486 10.024 16.0061C10.0722 15.7637 10.1913 15.5409 10.3661 15.3661C10.5409 15.1913 10.7637 15.0722 11.0061 15.024C11.2486 14.9758 11.4999 15.0005 11.7284 15.0952C11.9568 15.1898 12.152 15.35 12.2893 15.5555C12.4267 15.7611 12.5 16.0028 12.5 16.25C12.5 16.5815 12.3683 16.8995 12.1339 17.1339C11.8995 17.3683 11.5815 17.5 11.25 17.5ZM16.25 17.5C16.0028 17.5 15.7611 17.4267 15.5555 17.2893C15.35 17.152 15.1898 16.9568 15.0951 16.7284C15.0005 16.4999 14.9758 16.2486 15.024 16.0061C15.0722 15.7637 15.1913 15.5409 15.3661 15.3661C15.5409 15.1913 15.7637 15.0722 16.0061 15.024C16.2486 14.9758 16.4999 15.0005 16.7284 15.0952C16.9568 15.1898 17.152 15.35 17.2893 15.5555C17.4267 15.7611 17.5 16.0028 17.5 16.25C17.5 16.5815 17.3683 16.8995 17.1339 17.1339C16.8995 17.3683 16.5815 17.5 16.25 17.5ZM21.25 17.5C21.0028 17.5 20.7611 17.4267 20.5555 17.2893C20.35 17.152 20.1898 16.9568 20.0951 16.7284C20.0005 16.4999 19.9758 16.2486 20.024 16.0061C20.0723 15.7637 20.1913 15.5409 20.3661 15.3661C20.5409 15.1913 20.7637 15.0722 21.0061 15.024C21.2486 14.9758 21.4999 15.0005 21.7284 15.0952C21.9568 15.1898 22.152 15.35 22.2893 15.5555C22.4267 15.7611 22.5 16.0028 22.5 16.25C22.5 16.5815 22.3683 16.8995 22.1339 17.1339C21.8995 17.3683 21.5815 17.5 21.25 17.5Z"/>
</symbol>

<symbol id="google-sign-color-icon"  width="30" height="30" viewBox="0 0 30 30" fill="none" xmlns="http://www.w3.org/2000/svg">
<path d="M29.9826 15.2807C29.9826 14.0516 29.8805 13.1547 29.6597 12.2245H15.2972V17.772H23.7277C23.5578 19.1507 22.6399 21.2268 20.6002 22.622L20.5717 22.8077L25.1128 26.2454L25.4274 26.2761C28.3168 23.6684 29.9826 19.8316 29.9826 15.2807Z" fill="#4285F4"/>
<path d="M15.2972 29.897C19.4274 29.897 22.8947 28.5681 25.4273 26.2761L20.6002 22.622C19.3084 23.5023 17.5747 24.1168 15.2972 24.1168C11.2519 24.1168 7.81857 21.5092 6.59467 17.905L6.41528 17.9199L1.69334 21.4909L1.63159 21.6586C4.14711 26.5418 9.3142 29.897 15.2972 29.897Z" fill="#34A853"/>
<path d="M6.59475 17.9049C6.27181 16.9748 6.08492 15.9782 6.08492 14.9484C6.08492 13.9186 6.27181 12.9221 6.57776 11.992L6.56921 11.7939L1.7881 8.16547L1.63167 8.23818C0.5949 10.2646 0 12.5401 0 14.9484C0 17.3568 0.5949 19.6322 1.63167 21.6586L6.59475 17.9049Z" fill="#FBBC05"/>
<path d="M15.2972 5.78004C18.1696 5.78004 20.1072 6.99252 21.2121 8.00576L25.5293 3.8866C22.8778 1.47824 19.4274 0 15.2972 0C9.3142 0 4.14711 3.35508 1.63159 8.23821L6.57768 11.992C7.81857 8.38775 11.2519 5.78004 15.2972 5.78004Z" fill="#EB4335"/>
</symbol>

<symbol id="login-email-icon" viewBox="0 0 30 23" fill="currentColor" xmlns="http://www.w3.org/2000/svg">
<path d="M0 2.64445V1.875C0 1.37772 0.197544 0.900806 0.549175 0.549175C0.900806 0.197544 1.37772 0 1.875 0L28.125 0C28.6223 0 29.0992 0.197544 29.4508 0.549175C29.8025 0.900806 30 1.37772 30 1.875V2.64445L15 12.0195L0 2.64445ZM15.4969 13.9202C15.3478 14.0133 15.1757 14.0626 15 14.0626C14.8243 14.0626 14.6522 14.0133 14.5031 13.9202L0 4.85555V20.625C0 21.1223 0.197544 21.5992 0.549175 21.9508C0.900806 22.3025 1.37772 22.5 1.875 22.5H28.125C28.6223 22.5 29.0992 22.3025 29.4508 21.9508C29.8025 21.5992 30 21.1223 30 20.625V4.85555L15.4969 13.9202Z" />
</symbol>

<symbol id="login-phone-icon" viewBox="0 0 30 30" fill="none" xmlns="http://www.w3.org/2000/svg">
<path d="M12.154 6.87982C11.7635 2.38836 7.07782 0.18454 6.87952 0.0945882C6.69414 0.00744463 6.48639 -0.0203977 6.28461 0.0148581C0.875227 0.912333 0.0615707 4.06065 0.0288609 4.19149C-0.0156421 4.37382 -0.00856391 4.56493 0.0493045 4.74347C6.50131 24.7619 19.9103 28.4724 24.3179 29.6929C24.6573 29.7869 24.9374 29.8625 25.15 29.932C25.3926 30.0113 25.6562 29.996 25.888 29.8891C26.0229 29.8278 29.208 28.3272 29.9869 23.433C30.0215 23.2194 29.9871 23.0003 29.8888 22.8074C29.8193 22.6725 28.1531 19.5017 23.5329 18.3814C23.3761 18.3413 23.212 18.3399 23.0546 18.3773C22.8972 18.4147 22.7512 18.4898 22.6293 18.5961C21.1716 19.8411 19.1579 21.1679 18.2891 21.3048C12.4647 18.457 9.21213 12.9925 9.08947 11.956C9.01792 11.3733 10.3529 9.32692 11.8882 7.66281C11.9847 7.55808 12.0582 7.43431 12.104 7.29945C12.1497 7.1646 12.1668 7.02166 12.154 6.87982Z" fill="#A9CEC2"/>
</symbol>

<symbol id="info-icon" aria-hidden="true" xmlns="http://www.w3.org/2000/svg" fill="currentColor" viewBox="0 0 20 20" > <path d="M10 .5a9.5 9.5 0 1 0 9.5 9.5A9.51 9.51 0 0 0 10 .5ZM9.5 4a1.5 1.5 0 1 1 0 3 1.5 1.5 0 0 1 0-3ZM12 15H8a1 1 0 0 1 0-2h1v-3H8a1 1 0 0 1 0-2h2a1 1 0 1 1 1 1v4h1a1 1 0 1 1 0 2Z" />
</symbol>

<symbol id="close-icon" xmlns="http://www.w3.org/2000/svg" fill="none" viewBox="0 0 24 24" stroke="currentColor" aria-hidden="true"> <path strokeLinecap="round" strokeLinejoin="round" strokeWidth="2" d="M6 18L18 6M6 6l12 12"/>
</symbol>

<symbol id="pencil-icon" viewBox="0 0 20 21" fill="currentColor" xmlns="http://www.w3.org/2000/svg">
<path d="M1.01702 13.8732L0.0287093 18.6639C-0.0160254 18.8812 -0.00838082 19.1069 0.0509406 19.3203C0.110262 19.5336 0.219353 19.7278 0.368168 19.8848C0.519031 20.0379 0.702542 20.1502 0.903149 20.2123C1.10376 20.2744 1.31555 20.2844 1.52058 20.2414L6.03751 19.1928C6.27205 19.1383 6.48684 19.0136 6.6563 18.8336L18.0727 6.75198C18.4217 6.38268 18.6985 5.94425 18.8874 5.46172C19.0763 4.97918 19.1735 4.46199 19.1735 3.93969C19.1735 3.41739 19.0763 2.9002 18.8874 2.41767C18.6985 1.93513 18.4217 1.4967 18.0727 1.12741C17.3571 0.403806 16.4055 0 15.4159 0C14.4262 0 13.4746 0.403806 12.7591 1.12741L1.36024 13.221C1.18916 13.3991 1.07003 13.6255 1.01702 13.8732ZM14.5303 3.00315C14.7686 2.76154 15.0858 2.62667 15.4159 2.62667C15.7459 2.62667 16.0631 2.76154 16.3015 3.00315C16.5332 3.2532 16.663 3.58946 16.663 3.93969C16.663 4.28993 16.5332 4.62619 16.3015 4.87624L15.4159 5.81344L13.6447 3.93903L14.5303 3.00315ZM3.38196 14.8196L11.8672 5.81742L13.6209 7.68255L5.13187 16.6874L2.88342 17.2097L3.38196 14.8196Z"/>
</symbol>

<svg id="video-icon" viewBox="0 0 51 36" stroke="currentColor" fill="none" xmlns="http://www.w3.org/2000/svg">
<path d="M19.25 10.5V25.5M11.75 18H26.75M35.5 13L41.942 9.1348C43.9247 7.94508 44.9163 7.35023 45.732 7.42628C46.4433 7.49258 47.0922 7.86 47.515 8.43582C48 9.0962 48 10.2524 48 12.5648V23.4352C48 25.7475 48 26.9037 47.515 27.5642C47.0922 28.14 46.4433 28.5075 45.732 28.5737C44.9163 28.6497 43.9247 28.055 41.942 26.8652L35.5 23M11 33H27.5C30.3003 33 31.7005 33 32.77 32.455C33.7107 31.9757 34.4757 31.2108 34.955 30.27C35.5 29.2005 35.5 27.8003 35.5 25V11C35.5 8.19975 35.5 6.7996 34.955 5.73005C34.4757 4.78923 33.7107 4.02432 32.77 3.54497C31.7005 3 30.3003 3 27.5 3H11C8.19975 3 6.7996 3 5.73005 3.54497C4.78923 4.02432 4.02432 4.78923 3.54497 5.73005C3 6.7996 3 8.19972 3 11V25C3 27.8003 3 29.2005 3.54497 30.27C4.02432 31.2108 4.78923 31.9757 5.73005 32.455C6.7996 33 8.19972 33 11 33Z" stroke-width="5" stroke-linecap="round" stroke-linejoin="round"/>
</svg>


<symbol id="chat-icon"  viewBox="0 0 43 41" stroke="currentColor" fill="none" xmlns="http://www.w3.org/2000/svg">
<path d="M9.11641 35.3334L12.1158 32.9341L12.1378 32.9171C12.7631 32.4168 13.0787 32.1643 13.4307 31.9846C13.7466 31.8232 14.0833 31.7057 14.4308 31.6343C14.8224 31.554 15.2303 31.554 16.0491 31.554H33.1346C35.3348 31.554 36.4362 31.554 37.2774 31.1253C38.018 30.7481 38.6206 30.1452 38.9979 29.4046C39.4266 28.5634 39.4266 27.4632 39.4266 25.263V10.292C39.4266 8.09175 39.4266 6.99 38.9979 6.14882C38.6206 5.40815 38.0168 4.80641 37.2762 4.42904C36.4342 4 35.3334 4 33.1289 4H10.2985C8.09392 4 6.99083 4 6.14882 4.42904C5.40815 4.80641 4.80641 5.40815 4.42904 6.14882C4 6.99083 4 8.09392 4 10.2985V32.875C4 34.9725 4 36.0209 4.42996 36.5596C4.80389 37.028 5.37069 37.3006 5.97007 37.3C6.65926 37.2992 7.47858 36.6438 9.11641 35.3334Z"  stroke-width="7" stroke-linecap="round" stroke-linejoin="round"/>
</symbol>

<symbol id="time-icon" viewBox="0 0 50 51" fill="currentColor" xmlns="http://www.w3.org/2000/svg">
<path d="M24.975 0.5C11.175 0.5 0 11.7 0 25.5C0 39.3 11.175 50.5 24.975 50.5C38.8 50.5 50 39.3 50 25.5C50 11.7 38.8 0.5 24.975 0.5ZM25 45.5C13.95 45.5 5 36.55 5 25.5C5 14.45 13.95 5.5 25 5.5C36.05 5.5 45 14.45 45 25.5C45 36.55 36.05 45.5 25 45.5ZM26.25 13H22.5V28L35.625 35.875L37.5 32.8L26.25 26.125V13Z" />
</symbol>

<symbol id="ticket-icon" viewBox="0 0 60 60" fill="currentColor" xmlns="http://www.w3.org/2000/svg">
<path d="M34.5375 14.1725L45.7975 25.425L25.4225 45.8L14.17 34.54L34.5375 14.1725ZM27.0225 49.0325L49.0225 27.0325C49.4375 26.625 49.6975 26.06 49.6975 25.4325C49.6975 24.805 49.44 24.24 49.025 23.8325L36.135 10.9425C35.72 10.5475 35.155 10.305 34.535 10.305C33.915 10.305 33.35 10.5475 32.935 10.945L10.935 32.945C10.52 33.3525 10.26 33.9175 10.26 34.545C10.26 35.1725 10.5175 35.7375 10.9325 36.145L23.8225 49.035C24.2375 49.43 24.8025 49.6725 25.4225 49.6725C26.0425 49.6725 26.6075 49.43 27.0225 49.0325ZM58.68 26.35L26.385 58.6825C25.555 59.4975 24.4175 60 23.1625 60C21.9075 60 20.77 59.4975 19.94 58.6825L15.455 54.2C16.6475 52.97 17.38 51.29 17.38 49.4375C17.38 45.655 14.3125 42.5875 10.53 42.5875C8.68 42.5875 7 43.3225 5.7675 44.515L5.77 44.5125L1.3175 40.0275C0.5025 39.1975 0 38.06 0 36.805C0 35.55 0.5025 34.4125 1.3175 33.5825L33.615 1.3175C34.445 0.5025 35.5825 0 36.8375 0C38.0925 0 39.23 0.5025 40.06 1.3175L44.5125 5.77C43.225 7.0175 42.425 8.7625 42.425 10.6925C42.425 14.475 45.4925 17.5425 49.275 17.5425C51.2075 17.5425 52.9525 16.7425 54.1975 15.455L54.2 15.4525L58.685 19.905C59.5 20.735 60.0025 21.8725 60.0025 23.1275C60.0025 24.3825 59.5 25.52 58.685 26.35H58.68Z" />
</symbol>

<symbol id="calender-icon" width="55" height="55" viewBox="0 0 55 55" fill="currentColor" xmlns="http://www.w3.org/2000/svg">
<path d="M27.5 33C28.0439 33 28.5756 32.8387 29.0278 32.5365C29.4801 32.2344 29.8325 31.8049 30.0407 31.3024C30.2488 30.7999 30.3033 30.2469 30.1972 29.7135C30.091 29.1801 29.8291 28.6901 29.4445 28.3055C29.0599 27.9209 28.5699 27.659 28.0365 27.5528C27.503 27.4467 26.9501 27.5012 26.4476 27.7093C25.9451 27.9175 25.5156 28.2699 25.2135 28.7222C24.9113 29.1744 24.75 29.7061 24.75 30.25C24.75 30.9793 25.0397 31.6788 25.5555 32.1945C26.0712 32.7103 26.7707 33 27.5 33ZM41.25 33C41.7939 33 42.3256 32.8387 42.7778 32.5365C43.2301 32.2344 43.5825 31.8049 43.7907 31.3024C43.9988 30.7999 44.0533 30.2469 43.9472 29.7135C43.841 29.1801 43.5791 28.6901 43.1945 28.3055C42.81 27.9209 42.3199 27.659 41.7865 27.5528C41.2531 27.4467 40.7001 27.5012 40.1976 27.7093C39.6951 27.9175 39.2656 28.2699 38.9635 28.7222C38.6613 29.1744 38.5 29.7061 38.5 30.25C38.5 30.9793 38.7897 31.6788 39.3055 32.1945C39.8212 32.7103 40.5207 33 41.25 33ZM27.5 44C28.0439 44 28.5756 43.8387 29.0278 43.5365C29.4801 43.2344 29.8325 42.8049 30.0407 42.3024C30.2488 41.7999 30.3033 41.2469 30.1972 40.7135C30.091 40.1801 29.8291 39.69 29.4445 39.3055C29.0599 38.9209 28.5699 38.659 28.0365 38.5528C27.503 38.4467 26.9501 38.5012 26.4476 38.7093C25.9451 38.9175 25.5156 39.2699 25.2135 39.7222C24.9113 40.1744 24.75 40.7061 24.75 41.25C24.75 41.9793 25.0397 42.6788 25.5555 43.1945C26.0712 43.7103 26.7707 44 27.5 44ZM41.25 44C41.7939 44 42.3256 43.8387 42.7778 43.5365C43.2301 43.2344 43.5825 42.8049 43.7907 42.3024C43.9988 41.7999 44.0533 41.2469 43.9472 40.7135C43.841 40.1801 43.5791 39.69 43.1945 39.3055C42.81 38.9209 42.3199 38.659 41.7865 38.5528C41.2531 38.4467 40.7001 38.5012 40.1976 38.7093C39.6951 38.9175 39.2656 39.2699 38.9635 39.7222C38.6613 40.1744 38.5 40.7061 38.5 41.25C38.5 41.9793 38.7897 42.6788 39.3055 43.1945C39.8212 43.7103 40.5207 44 41.25 44ZM13.75 33C14.2939 33 14.8256 32.8387 15.2778 32.5365C15.7301 32.2344 16.0825 31.8049 16.2907 31.3024C16.4988 30.7999 16.5533 30.2469 16.4472 29.7135C16.3411 29.1801 16.0791 28.6901 15.6945 28.3055C15.3099 27.9209 14.8199 27.659 14.2865 27.5528C13.753 27.4467 13.2001 27.5012 12.6976 27.7093C12.1951 27.9175 11.7656 28.2699 11.4635 28.7222C11.1613 29.1744 11 29.7061 11 30.25C11 30.9793 11.2897 31.6788 11.8055 32.1945C12.3212 32.7103 13.0207 33 13.75 33ZM46.75 5.5H44V2.75C44 2.02065 43.7103 1.32118 43.1945 0.805456C42.6788 0.289731 41.9793 0 41.25 0C40.5207 0 39.8212 0.289731 39.3055 0.805456C38.7897 1.32118 38.5 2.02065 38.5 2.75V5.5H16.5V2.75C16.5 2.02065 16.2103 1.32118 15.6945 0.805456C15.1788 0.289731 14.4793 0 13.75 0C13.0207 0 12.3212 0.289731 11.8055 0.805456C11.2897 1.32118 11 2.02065 11 2.75V5.5H8.25C6.06196 5.5 3.96354 6.36919 2.41637 7.91637C0.869194 9.46354 0 11.562 0 13.75V46.75C0 48.938 0.869194 51.0365 2.41637 52.5836C3.96354 54.1308 6.06196 55 8.25 55H46.75C48.938 55 51.0365 54.1308 52.5836 52.5836C54.1308 51.0365 55 48.938 55 46.75V13.75C55 11.562 54.1308 9.46354 52.5836 7.91637C51.0365 6.36919 48.938 5.5 46.75 5.5ZM49.5 46.75C49.5 47.4793 49.2103 48.1788 48.6945 48.6945C48.1788 49.2103 47.4793 49.5 46.75 49.5H8.25C7.52065 49.5 6.82118 49.2103 6.30546 48.6945C5.78973 48.1788 5.5 47.4793 5.5 46.75V22H49.5V46.75ZM49.5 16.5H5.5V13.75C5.5 13.0207 5.78973 12.3212 6.30546 11.8055C6.82118 11.2897 7.52065 11 8.25 11H46.75C47.4793 11 48.1788 11.2897 48.6945 11.8055C49.2103 12.3212 49.5 13.0207 49.5 13.75V16.5ZM13.75 44C14.2939 44 14.8256 43.8387 15.2778 43.5365C15.7301 43.2344 16.0825 42.8049 16.2907 42.3024C16.4988 41.7999 16.5533 41.2469 16.4472 40.7135C16.3411 40.1801 16.0791 39.69 15.6945 39.3055C15.3099 38.9209 14.8199 38.659 14.2865 38.5528C13.753 38.4467 13.2001 38.5012 12.6976 38.7093C12.1951 38.9175 11.7656 39.2699 11.4635 39.7222C11.1613 40.1744 11 40.7061 11 41.25C11 41.9793 11.2897 42.6788 11.8055 43.1945C12.3212 43.7103 13.0207 44 13.75 44Z" />
</symbol>


</svg>



